<svg xmlns="http://www.w3.org/2000/svg" viewBox="0 0 1017.8 1030.61">
  <defs>
    <style>.lines{fill:rgba(0,0,0,0.13);}</style>
  </defs>
  <g id="ab42cb18-1376-4335-b2b0-bf5289072932">
    <g id="e6bf1a22-7d74-43c6-a201-a8a48d66ed10">
      <path d="M525.69 5.33c1.11 7 2.88 14 4.58 20.71 1.1 4.34 2.24 8.83 3.19 13.27 1.33 6.25.13 12.46-3.21 16.61-3.2 4-8.3 6.08-14.77 6.11-4.72 0-9.55-.3-14.22-.62l-5.21-.33c-13.39-.77-23.72-1.38-33.5-2a46 46 0 01-26.88-10.32A188 188 0 01395 2.45 20.13 20.13 0 01393.76 0h-2.18a21.9 21.9 0 001.73 3.5 190.28 190.28 0 0041.09 46.81 47.94 47.94 0 0028 10.77c9.77.61 20.11 1.23 33.5 2l5.2.33c4.56.31 9.26.62 13.92.62h.44c7.09 0 12.73-2.4 16.32-6.85 3.72-4.62 5.06-11.46 3.6-18.29-.95-4.47-2.09-9-3.2-13.34-1.7-6.74-3.47-13.71-4.57-20.64a.86.86 0 00-.06-.23c0-.07-.73-1.79-1.6-4.68h-2.05c.86 2.94 1.6 4.85 1.79 5.33z" class="lines"/>
      <path d="M270.83 630l-.11.1c-8.26 9.84-11.75 19.73-10.65 30.24.76 7.33 6.22 11.53 11.45 14.68 4.77 2.87 9.86 5.35 14.77 7.75l2.77 1.35 4.23 2.1c6.12 3 12.44 6.17 18.84 8.87a33.45 33.45 0 0025.22.66c5.27-1.93 10.72-3.66 16-5.34 2.83-.89 5.65-1.79 8.46-2.72 3.29-1.09 6.59-2.15 9.89-3.21 8.12-2.61 16.52-5.3 24.61-8.4 11.3-4.32 22.18-11.59 33.28-22.21 5.1-4.87 9.84-10.25 14.42-15.46 2-2.3 4.13-4.69 6.23-7l.06-.07c4-5.38 5-10.68 3.06-15.74-7.77-19.67-59-29-61.15-29.38-16.53-3.85-29.92-10.69-40.95-20.92-7.16-6.65-10.58-14.23-10.43-23.16a129.84 129.84 0 00-2-24.65c-1.12-6.4-6.87-12.92-15.37-12.41-6.31.38-13.37 5.33-14.24 13-.42 3.69.69 7.65 1.93 11.32.11.45 13.59 53.12-40.32 100.6zm42.56-68.05c3.28-19.36-.2-32.55-.36-33.16-1.19-3.51-2.24-7.21-1.86-10.52.74-6.49 7-10.86 12.37-11.18 7.3-.46 12.3 5.21 13.28 10.75a128.48 128.48 0 012 24.28c-.15 9.53 3.47 17.6 11.07 24.66 11.29 10.47 25 17.47 41.91 21.4.52.1 52.33 9.53 59.69 28.17 1.74 4.42.83 8.92-2.78 13.76a444.7 444.7 0 00-6.21 7c-4.56 5.17-9.27 10.52-14.3 15.34-10.9 10.43-21.57 17.56-32.61 21.78-8 3.08-16.42 5.77-24.51 8.37-3.31 1.06-6.61 2.12-9.91 3.21-2.8.93-5.62 1.82-8.43 2.72-5.29 1.68-10.77 3.42-16.07 5.36a31.49 31.49 0 01-23.76-.62c-6.35-2.68-12.64-5.8-18.73-8.82l-4.24-2.1-2.77-1.36c-4.88-2.38-9.92-4.84-14.62-7.66s-9.82-6.72-10.5-13.17c-1-9.93 2.29-19.31 10.16-28.69 28.58-25.25 38.17-51.76 41.18-69.57z" class="lines"/>
      <path d="M258.69 443.44c7.1 2.49 14.84 3.39 24.37 2.85 10.58-.6 20.52-2.86 29.68-5.2A189.67 189.67 0 00363.05 420a53 53 0 0113.73-5.82c4.22-1.08 7.15 1 9.8 6.79q2.22 4.92 4.49 9.82c3.32 7.24 6.76 14.73 9.94 22.18l.83 1.95c3.46 8.1 7 16.47 9.47 25 1.33 4.61 1.72 9.63 2.11 14.48.16 2.07.33 4.2.57 6.29l.19 1.76c.77 7 1.57 14.31 6.57 20.25 4.25 5.06 10.15 7.61 17.58 7.61a37.77 37.77 0 005.28-.39c17.15-2.44 29.57-8 39.1-17.63 7.33-7.37 9.77-17 12.13-26.31l.58-2.27c2.44-9.62 5-19.56 6.38-29.52 1.58-11.17-2-21.53-10.57-30.8-8.88-9.57-20.32-14.91-31.37-19.26-13-5.13-27.4-8.92-45.23-11.93a91.33 91.33 0 00-18.67-1c-5.28.19-9-2.29-11.4-7.6a85.22 85.22 0 01-5.47-17.74c-.9-4.5-1.44-9.17-2-13.69-.35-3-.71-6.16-1.18-9.24-1.29-8.43-9.82-13.78-16.59-12.91a40.7 40.7 0 01-6.35.12c-1 0-2-.06-3-.06a1 1 0 00-.25 0 1 1 0 00-.59 0l-7.42 2.6c-5.45 1.91-11.08 3.88-16.58 5.92-11.19 4.17-19.51 13-25.43 27.09-6.7 15.92-16.39 31.56-30.5 49.22-4.17 5.22-9 11.31-13.49 17.56-1.73 2.41-2.32 4.74-1.68 6.74.43 1.37 1.57 3.15 4.66 4.23zm-1.34-9.73c4.47-6.21 9.28-12.28 13.43-17.49 14.23-17.8 24-33.59 30.78-49.68 5.77-13.71 13.49-22 24.28-26 5.49-2 11.11-4 16.55-5.91l7.35-2.58a1 1 0 00.25 0c1 0 2 0 2.94.06a42.68 42.68 0 006.68-.13c7-.9 13.44 5.3 14.35 11.23.46 3 .83 6.15 1.18 9.16.53 4.56 1.07 9.27 2 13.85a86.48 86.48 0 005.61 18.16c2.7 6.06 7.18 9.05 13.29 8.79a88.88 88.88 0 0118.27 1c17.68 3 31.93 6.74 44.83 11.81 10.82 4.26 22 9.48 30.63 18.76 8.17 8.81 11.55 18.62 10.06 29.16-1.39 9.85-3.91 19.74-6.34 29.3l-.58 2.27c-2.29 9.05-4.67 18.42-11.61 25.4-9.21 9.26-21.27 14.68-38 17.06-9.36 1.33-16.24-.8-21.05-6.53-4.6-5.47-5.34-12.13-6.11-19.18l-.2-1.76c-.23-2.06-.4-4.18-.56-6.23a75.57 75.57 0 00-2.17-14.88c-2.48-8.62-6.08-17.05-9.56-25.2l-.83-1.95c-3.19-7.48-6.63-15-10-22.24q-2.25-4.89-4.48-9.8c-1.66-3.68-4.4-8.24-9.57-8.24a10 10 0 00-2.55.34 54.67 54.67 0 00-14.25 6 187.74 187.74 0 01-49.78 20.83c-9.07 2.32-18.89 4.55-29.31 5.14-9.25.52-16.75-.34-23.59-2.73-1.28-.45-2.9-1.31-3.4-2.88-.37-1.32.11-3.04 1.46-4.91z" class="lines"/>
      <path d="M315.84 414.12a13.69 13.69 0 001.78-.13c11.5-1.65 19.85-7.69 24.79-18 3-6.19 3.48-12.95 1.52-20.68a12.07 12.07 0 00-11.93-9.22.61.61 0 00-.26 0 1.06 1.06 0 00-.53 0c-6.08 1.73-10.94 6.14-14.45 13.09a176.21 176.21 0 00-9.13 23.08c-1.11 3.32-.66 6.54 1.25 8.82a8.81 8.81 0 006.96 3.04zm-6.31-11.18a174.47 174.47 0 019-22.82c3.24-6.42 7.68-10.48 13.19-12.06a.88.88 0 00.24 0 10.12 10.12 0 0110 7.75c1.84 7.25 1.39 13.57-1.38 19.32-4.64 9.64-12.47 15.3-23.28 16.85-2.9.42-5.42-.38-6.92-2.17a7.06 7.06 0 01-.85-6.87z" class="lines"/>
      <path d="M424.77 447.07c6.52 9.74 13.52 19.38 20.29 28.71l.64.88a11 11 0 009 4.66h.41a12.75 12.75 0 0010.19-6.23c4.83-7.76 9.46-17.24 7.19-28.7-2.2-11.13-9.3-18.85-21.7-23.59a60.23 60.23 0 00-11.45-2.74c-1.69-.29-3.45-.59-5.15-.95a37.48 37.48 0 00-1 0c-11 3.54-13.23 6.82-12.06 17.54a24 24 0 003.64 10.42zm9-26c1.73.36 3.51.67 5.23 1a59.32 59.32 0 0111.07 2.63c11.7 4.48 18.39 11.71 20.45 22.12 2.13 10.78-2.31 19.83-6.93 27.25a10.58 10.58 0 01-8.56 5.29 9 9 0 01-7.72-3.84l-.64-.88c-6.76-9.31-13.75-18.93-20.25-28.64a21.78 21.78 0 01-3.32-9.49c-1.1-9.76.63-12.22 10.64-15.45z" class="lines"/>
      <path d="M221 457.82a4.63 4.63 0 001.34-2 36.78 36.78 0 00.84-4.72c.08-.62.16-1.24.26-1.86a1 1 0 00-.84-1.14c-.64-.1-1.29-.26-2-.42a11 11 0 00-4.85-.45c-3 .62-5.94 1.45-8.81 2.26-3.34.93-6.78 1.89-10.21 2.53-10.84 2-21.75 3.68-32.43 5l-5 .63c-11.11 1.4-22.6 2.85-33.92 3.27-19.54.74-37.48-5.84-53.36-19.53-7.14-6.16-14.89-12.44-24.29-15.68a88.45 88.45 0 00-10.06-2.59c-1.51-.33-3-.65-4.51-1a1 1 0 00-.48 0 1 1 0 00-.45 0c-5.7 1.14-10.21 4.44-14.2 10.38C13.73 439 8.2 446.17 0 451.05v2.31c9.1-5.08 15.09-12.82 19.75-19.76 3.73-5.55 7.71-8.49 12.93-9.53h.07c1.51.37 3 .69 4.56 1a87.48 87.48 0 019.83 2.53c9.06 3.12 16.65 9.27 23.63 15.3 16.27 14 34.7 20.77 54.75 20 11.4-.43 22.94-1.88 34.09-3.29l5-.62c10.72-1.34 21.68-3 32.55-5 3.52-.65 7-1.62 10.39-2.57 2.83-.79 5.77-1.61 8.68-2.23a9.65 9.65 0 014 .44c.38.09.77.19 1.17.27 0 .32-.09.64-.13.95a34.4 34.4 0 01-.78 4.47 3.4 3.4 0 01-.85 1.13 8.31 8.31 0 00-.93 1.1c-11 16.57-14.33 35.44-10 57.71 1.48 7.63 3.66 15.23 5.78 22.58 1 3.61 2.11 7.34 3.08 11 2.61 9.86-4.37 25.52-11.48 30-2.46 1.54-4.41 1.51-6.33-.11a108.72 108.72 0 01-8.79-8.65l-.68-.71a50.84 50.84 0 00-19.41-12.7 118.27 118.27 0 00-28.2-6.71 140.87 140.87 0 00-16.23-1 129.09 129.09 0 00-20.06 1.56c-2.72.43-5.47.94-8.13 1.44-8.47 1.58-17.22 3.21-26.11 2.18-7-.8-14.17-2-19.26-7.41a94.73 94.73 0 01-13.4-17.23C31 515 19 504.56 2.9 497.63l-1.16-.5-1.74-.74v2.17l1 .44 1.16.5c15.74 6.75 27.4 16.9 35.65 31a97.12 97.12 0 0013.62 17.65c5.55 5.87 13.16 7.18 20.48 8 9.19 1.06 18.09-.6 26.7-2.21 2.65-.49 5.38-1 8.08-1.42a131.23 131.23 0 0135.75-.6 116.86 116.86 0 0127.73 6.6 48.94 48.94 0 0118.66 12.2l.67.71a111.31 111.31 0 009 8.81 6.62 6.62 0 004.31 1.7 8.21 8.21 0 004.37-1.43c7.81-4.93 15.2-21.44 12.35-32.22-1-3.7-2.05-7.44-3.09-11.05-2.1-7.31-4.28-14.87-5.74-22.41-4.2-21.73-1-40.12 9.72-56.22a7.17 7.17 0 01.58-.79z" class="lines"/>
      <path d="M268.37 6.07A40.92 40.92 0 00271.06 0h-2.12a38.1 38.1 0 01-2.33 5.11c-8.93 16.33-18.55 29.65-29.4 40.72-13.28 13.55-17.6 30.37-13.58 52.91.51 2.88 1.07 5.75 1.62 8.62 2.21 11.41 4.5 23.21 3.78 35.17-1.11 18.55-11 23.57-19.16 24.52a152.09 152.09 0 01-16.39 1h-.17c-13 0-22.16-8.44-23.35-21.54-1.33-14.61-3.74-26.44-7.6-37.22-4.73-13.29-9.5-27.45-11.21-42.29-1.93-16.76-5.84-29.9-12.31-41.34-4.79-8.47-6.3-17-4.57-25.61h-2c-1.67 8.92-.08 17.93 4.81 26.59 6.33 11.2 10.17 24.1 12.06 40.59 1.74 15.1 6.54 29.41 11.32 42.77 3.79 10.62 6.17 22.29 7.49 36.73 1.29 14.21 11.22 23.36 25.34 23.36h.18a151.11 151.11 0 0016.61-1c12.56-1.46 20-10.83 20.93-26.38.73-12.21-1.58-24.13-3.82-35.67-.55-2.86-1.1-5.72-1.62-8.59-3.89-21.85.26-38.11 13-51.16 11.05-11.29 20.77-24.73 29.8-41.22z" class="lines"/>
      <path d="M90.94 533c11.17.59 22.85 1.13 34.57 1.13 4.34 0 8.69-.07 13-.25 8.65-.35 20-1.26 30.85-5.19 7.4-2.68 16.3-8.93 16.61-23.53 0-.9.07-1.81.13-2.72a26.91 26.91 0 00-.26-7.5c-2.63-11.48-8.35-16.87-19.74-18.61a125.33 125.33 0 00-17.39-1c-2.53 0-5.14-.07-7.69-.17a.92.92 0 00-.29 0 1.07 1.07 0 00-.4 0L134 476c-4.63.65-9.43 1.32-14.13 2.13-12.53 2.18-26.73 4.65-38.91 13.12-9.43 6.55-13.3 15.46-10.89 25.08 2.15 8.82 11.34 16.12 20.87 16.67zm-8.89-40.06c11-7.61 23.22-10.2 38.11-12.78 4.67-.82 9.45-1.48 14.07-2.12l6.4-.91h.32c2.58.1 5.21.13 7.75.17a123.76 123.76 0 0117.11 1c10.58 1.61 15.65 6.4 18.09 17.08a24.44 24.44 0 01.21 6.93c-.06.94-.11 1.87-.13 2.8-.23 10.81-5.38 18.11-15.29 21.69-10.62 3.84-21.75 4.73-30.25 5.07-15.92.65-32.14-.08-47.39-.88-8.56-.44-17.12-7.22-19.09-15.1-2.19-8.8 1.39-16.96 10.09-23z" class="lines"/>
      <path d="M10.14 161.93a136.78 136.78 0 01-1-16.43c0-2.61-.09-5.3-.21-8-.3-6.6-.6-13.07-1-19.51a26.2 26.2 0 00-8-17.41v2.94a24.08 24.08 0 016 14.59c.41 6.43.71 12.89 1 19.48.12 2.63.17 5.31.21 7.91a139.28 139.28 0 001 16.66c1.65 11.84 1.13 20.79-1.7 29A62.63 62.63 0 010 204.37V208a68 68 0 008.35-16.15c2.94-8.52 3.49-17.76 1.79-29.92z" class="lines"/>
      <path d="M484.21 177.16c1.54 2.07 3.29 4 5 5.87l1.55 1.72c5 5.58 10.57 8.38 16.58 8.38 4.52 0 9.27-1.59 14.16-4.77a83.32 83.32 0 009.07-7.17l1.56-1.36c7.3-6.29 8-14.55 2.11-23.25a96.1 96.1 0 00-7.62-9.37q-1.46-1.62-2.87-3.27-3.76-4.38-7.58-8.72c-4.76-5.46-9.69-11.11-14.35-16.8-8.84-10.82-20.17-17.19-34.64-19.48a158.51 158.51 0 01-27.77-7 43.1 43.1 0 01-14.6-9.19c-5.35-5-10.48-10.45-15.45-15.7-3.15-3.34-6.4-6.79-9.69-10.1-4.29-4.32-9.65-9-17-10.76a39.81 39.81 0 00-5.26-.8c-.78-.08-1.56-.16-2.33-.26a1 1 0 00-.38 0 1.11 1.11 0 00-.48 0c-12.08 2.86-16.9 12.26-19.75 20.13-4.38 12.13-6.79 25.32-7.35 40.32-.43 11.64 3.43 21.9 11.17 29.68a210.58 210.58 0 0016.08 14.56c4.57 3.74 10.47 5.54 17.12 5.24 4-.18 8-.52 11.86-.84a182.84 182.84 0 0120.56-.94c22.09.61 44.82 2.98 60.3 23.88zm-63-25.94c-6 0-12.06.5-17.94 1-3.86.32-7.86.65-11.78.83a22.71 22.71 0 01-15.77-4.79 208.33 208.33 0 01-15.92-14.42c-7.34-7.37-11-17.12-10.59-28.2.55-14.79 2.92-27.78 7.24-39.71 4-11 9.62-16.8 18.32-18.86h.12c.79.11 1.58.19 2.38.27a39.29 39.29 0 015 .75c6.81 1.67 11.91 6.11 16 10.23 3.27 3.29 6.52 6.73 9.66 10.06 5 5.28 10.14 10.74 15.53 15.79a45.17 45.17 0 0015.31 9.62 160.51 160.51 0 0028.12 7.12c14 2.2 24.88 8.34 33.4 18.76 4.68 5.73 9.62 11.38 14.4 16.85 2.53 2.9 5.06 5.8 7.56 8.72.95 1.1 1.92 2.2 2.89 3.29a93.7 93.7 0 017.47 9.17c5.36 7.86 4.75 15-1.76 20.6l-1.57 1.37a82.52 82.52 0 01-8.85 7c-10.46 6.79-20.2 5.66-28.16-3.27l-1.56-1.73a73.4 73.4 0 01-4.86-5.72c-16-21.62-40.3-24.09-61.81-24.71-.98-.01-1.93-.02-2.88-.02z" class="lines"/>
      <path d="M385.71 89.61a1.06 1.06 0 00-.47 0 1 1 0 00-.65 0c-4.93 2.13-3.95 6.25-3.24 9.27.07.29.14.57.2.86.88 3.92 3.67 6.32 7.84 6.74a8.19 8.19 0 00.83 0 4.78 4.78 0 003.16-1 5.36 5.36 0 001.65-3.91c.39-6.01-3.09-10.51-9.32-11.96zm7.29 11.92a3.42 3.42 0 01-.95 2.51 3.3 3.3 0 01-2.49.51c-3.29-.33-5.4-2.13-6.08-5.19l-.21-.88c-.8-3.37-1.14-5.52 2-6.92 5.26 1.22 8.09 4.86 7.73 9.97z" class="lines"/>
      <path d="M470 5.07a7.18 7.18 0 01-2.76 6 7 7 0 01-6.42.58C456.89 10.3 453.16 5.72 453 2c0-.75-.06-1.42-.08-2h-2c0 .66 0 1.36.07 2.14.21 4.54 4.42 9.76 9.17 11.39a10.76 10.76 0 003.49.62 8.08 8.08 0 004.73-1.46A9.1 9.1 0 00472 5.1a22.78 22.78 0 00-.48-5.1h-2a21 21 0 01.48 5.07z" class="lines"/>
      <path d="M70.09 129.09a1 1 0 00-.35 0 1 1 0 00-.67.06c-4.18 1.94-7 4.59-8.1 7.67a10.4 10.4 0 00.61 8.16 7.82 7.82 0 005.38 4.5 7 7 0 001.43.15 7.15 7.15 0 004.73-1.85c3.47-3 4.93-6.51 4.33-10.37-.51-3.27-1.83-7.73-7.36-8.32zm1.71 17.21a5.07 5.07 0 01-4.43 1.26 5.86 5.86 0 01-4-3.39 8.5 8.5 0 01-.54-6.64c.93-2.53 3.32-4.77 6.91-6.47h.12c3.3.35 4.92 2.28 5.59 6.66.55 3.2-.69 6-3.65 8.58z" class="lines"/>
      <path d="M47.48 8.75c-.86 7.84-5.23 14.75-11.42 18C23.82 33.32 12 36 0 34.88v2c1.67.14 3.34.23 5 .23 10.61 0 21.33-2.86 32-8.55C43.76 25 48.54 17.45 49.47 9a26.05 26.05 0 00-.55-9h-2.06a24.09 24.09 0 01.62 8.75z" class="lines"/>
      <path d="M68.24 11.51c-1 9-2.51 19.53-6.22 29.73-4.24 11.67-11.62 17.51-22.56 17.85-3.15.1-6.3.23-9.44.36-6.9.29-14 .58-21 .52-3.29 0-6.26-.17-9-.44v2c2.75.26 5.71.41 9 .43h1.83c6.45 0 13-.27 19.29-.53 3.14-.13 6.28-.26 9.42-.36 11.85-.37 19.83-6.64 24.38-19.17 3.78-10.39 5.32-21.1 6.33-30.19A61.1 61.1 0 0070.44 0h-2a58.78 58.78 0 01-.2 11.51z" class="lines"/>
      <path d="M301.48 269.27a13.92 13.92 0 002.68-.27l.8-.15c3.31-.63 6.73-1.28 9.49-3.05 8.3-5.31 16.73-11.2 25.08-17.49 2.08-1.57 4-3.27 3.6-5.08-.29-1.49-1.86-2.49-5.42-3.46a82.85 82.85 0 00-12.24-2c-1.76-.2-3.58-.41-5.34-.66a1 1 0 00-.39 0 .93.93 0 00-.44 0l-3.3.63c-2.35.46-4.79.94-7.18 1.35a23.8 23.8 0 00-15.06 9.43 14.31 14.31 0 00-2 14.39 10.15 10.15 0 009.72 6.36zm-6.14-19.52a21.91 21.91 0 0113.81-8.69c2.43-.41 4.87-.89 7.24-1.35l3.28-.64h.18c1.79.25 3.62.46 5.39.66a82.13 82.13 0 0111.94 2c3.54 1 3.95 1.7 4 1.91s-.06 1-2.84 3.1c-8.31 6.26-16.71 12.12-25 17.41-2.44 1.56-5.66 2.17-8.78 2.77l-.8.15c-4.75.91-8.56-.92-10.22-4.9a12.32 12.32 0 011.8-12.42z" class="lines"/>
      <path d="M191.47 29.77a11.58 11.58 0 007.2 2.45c3.7 0 7.39-1.57 10.77-3.21 12.7-6.2 21.27-15.94 25.62-29H233c-4.25 12.24-12.41 21.37-24.39 27.21-5.28 2.57-10.86 4.77-15.88 1A47.26 47.26 0 01174.86 0h-2a49.21 49.21 0 0018.61 29.77z" class="lines"/>
      <path d="M88.15 0h-2c-.06 2.66-.2 5.33-.42 8-.77 9.49-1.27 20.69.84 31.77 1.55 8.13 5.05 15.9 11 24.46a124.65 124.65 0 019.92 16.84 66.1 66.1 0 015.51 40.85c-.84 4.88-1.57 9.85-2.27 14.66-1.11 7.67-2.27 15.59-3.92 23.26-2.5 11.68-9 20-19.27 24.87a80.28 80.28 0 01-34.87 7.52h-.22c-8 0-12.83-3.12-14.91-9.5-3.14-9.59-6.7-20.47-8.3-31.33-1.1-7.44-.53-15.33 0-23 .1-1.26.19-2.53.27-3.79.49-7.2.51-15.74-3-24.5-4.6-11.33-14.22-16.07-23.69-20-.91-.29-1.82-.65-2.82-1.02v2.15c.7.27 1.4.53 2.09.82 9.07 3.72 18.29 8.24 22.59 18.85 3.41 8.39 3.38 16.65 2.91 23.62q-.14 1.88-.27 3.78c-.57 7.73-1.15 15.72 0 23.38 1.62 11 5.21 22 8.38 31.66 2.35 7.2 8 10.86 16.81 10.88h.22a82.2 82.2 0 0035.72-7.71c10.88-5.11 17.74-13.94 20.38-26.26 1.66-7.73 2.82-15.69 3.94-23.39.7-4.8 1.42-9.76 2.26-14.61a68 68 0 00-5.7-42.07 127.08 127.08 0 00-10.1-17.12c-5.81-8.31-9.2-15.84-10.7-23.68-2.06-10.85-1.53-21.88-.81-31.24.22-2.72.37-5.43.43-8.15z" class="lines"/>
      <path d="M119.61 411.82q8.65 4.51 16.27 4.51a24.57 24.57 0 0016.15-6.1c3.83-3.22 6.81-7.71 9.22-11.68 2.11-3.49 3.95-7.19 5.72-10.78 1.1-2.21 2.23-4.5 3.42-6.7 5.83-10.87 15.77-17.24 31.27-20.06a147.56 147.56 0 0019.1-4.57c7.05-2.3 14.84-11.07 15.39-22.8 1-21.13-11.43-28.86-24.23-35-12.47-5.95-26.43-8.76-43.93-8.85a168.13 168.13 0 01-22.17-2.08c-4.17-.58-8.49-1.18-12.74-1.58a81.18 81.18 0 00-9.73-.15c-1.46 0-2.91.07-4.36.07a1 1 0 00-.25 0 1 1 0 00-.45 0c-19 3.92-34.73 15.54-48 35.51-11.49 17.29-11.29 33.61.61 49.91 11.64 16.02 28.03 29.53 48.71 40.35zM72 322.73c13-19.51 28.26-30.85 46.74-34.66a1 1 0 00.25 0c1.47 0 2.94 0 4.41-.07a79.07 79.07 0 019.49.14c4.21.4 8.5 1 12.65 1.57a169.56 169.56 0 0022.44 2.1c17.2.09 30.89 2.83 43.08 8.65 12.7 6.06 24 13.14 23.09 33.07-.38 8.2-5.72 18.29-14 21a146.71 146.71 0 01-18.85 4.51c-16.15 2.93-26.53 9.63-32.68 21.07-1.19 2.24-2.34 4.54-3.44 6.76-1.76 3.55-3.58 7.22-5.64 10.63-2.33 3.83-5.19 8.16-8.8 11.19-8.34 7-18.51 7.44-30.21 1.35-20.4-10.64-36.56-24-48-39.7s-11.71-30.88-.53-47.61z" class="lines"/>
      <path d="M502.05 1.65c.17 2.6.58 5.22 1 7.74s.75 4.85.92 7.27c1.15 15.89-4.27 23.71-17.58 25.36a102.09 102.09 0 01-18.8.9 50.18 50.18 0 01-15.63-3.4C440.19 34.7 432.22 25.35 425.35 16a61.17 61.17 0 01-8.57-16h-2.12a62.58 62.58 0 009.08 17.14c7 9.62 15.23 19.22 27.43 24.23a52.45 52.45 0 0016.26 3.55c1.53.09 3 .13 4.55.13a119.67 119.67 0 0014.62-1c18.95-2.35 20.11-16.81 19.34-27.49-.19-2.5-.57-5-.95-7.43s-.78-5-.94-7.57C504 1 504 .51 504 0h-2c0 .55 0 1.1.05 1.65z" class="lines"/>
      <path d="M98.87 368.82a29.13 29.13 0 0016.55 7.18h1.2a14.52 14.52 0 0012.1-6.42c8.18-12 14.2-21.44 19.53-30.56 2.55-4.36 3.36-7.8 2.55-10.81s-3.41-5.78-8.3-8.54-10.06-2.78-14.55-2.59a.71.71 0 00-.21 0 1 1 0 00-.57 0 59.66 59.66 0 00-33 26.46c-5.5 9.27-1.68 19.93 4.7 25.28zm-3-24.2a57.63 57.63 0 0131.86-25.56.92.92 0 00.29 0c4.22-.17 9.08-.14 13.48 2.34s6.67 4.76 7.36 7.31-.08 5.41-2.34 9.29c-5.31 9.07-11.31 18.45-19.46 30.43a12.57 12.57 0 01-11.48 5.57 27.07 27.07 0 01-15.42-6.68c-4.59-3.88-9.8-13.43-4.28-22.7z" class="lines"/>
      <path d="M1017.8 311v-2.63a44.18 44.18 0 01-9.95-11.8c-5-9.1-5.94-15.5 4.4-21.27a58.43 58.43 0 005.55-3.6v-2.49a57.33 57.33 0 01-6.53 4.34c-11.7 6.54-10.53 14.32-5.17 24a47.79 47.79 0 0011.7 13.45z" class="lines"/>
      <path d="M48.77 370.86c-6.8-7.24-12.23-16.55-16.14-27.67-4.56-13-13.77-20.84-23.05-27.43C6.24 313.39 3 311 0 308.41V311c2.67 2.22 5.52 4.3 8.42 6.36 9 6.4 18 14 22.32 26.46 4 11.39 9.58 20.93 16.57 28.37s14.56 15.31 22.58 22.53c10.87 9.77 21 18.29 31.06 26 11.59 8.95 23.26 13.32 35.61 13.32h2c16.86-.62 30.57-7.3 40.76-19.84 2.6-3.21 5.37-6.47 8.47-10 7.05-8 16.49-12.65 28.85-14.3a110 110 0 0022.67-5.09c13.36-4.79 21.76-15.44 25.69-32.56.2-.91.42-1.82.64-2.73.68-2.88 1.39-5.86 1.84-8.85C269.5 326.9 278 318 293.26 313.53s27.27-9.88 37.83-17.06l1.09-.74c6.82-4.65 13.88-9.45 21.32-13.08 6.58-3.21 13.5-6 20.2-8.72 4.33-1.75 8.82-3.56 13.17-5.46 16.48-7.23 27.75-15.91 35.45-27.32 1.46-2.18 2.94-4.35 4.42-6.53 4-5.87 8.13-11.94 12-18.05a21.08 21.08 0 003.14-8.89 15.1 15.1 0 00-5.51-13.62c-4.31-3.43-10.36-4.31-16.18-2.34-3.35 1.14-6.62 2.62-9.79 4.06-2.53 1.15-5.16 2.33-7.78 3.32-9 3.41-18.75 4.45-30.56 3.28a168.78 168.78 0 01-20-3.62 183.48 183.48 0 00-18.47-3.46 198.82 198.82 0 00-20.93-1c-4.3 0-8.75-.09-13.11-.31-7.07-.37-16.13-1.63-23.43-8.14-5.16-4.61-8.4-10.79-10.5-20.06-2.58-11.37-2.37-21.51.64-31 2.4-7.55 8.47-10.87 17.08-9.35A80.64 80.64 0 00301 127c9-.41 15.7-5.62 20.39-15.94a120.69 120.69 0 009.73-35.78c.19-1.46.35-2.92.52-4.39 1-8.72 2-17.74 6.57-25.83a59.42 59.42 0 0119.32-21c8.3-5.44 17.22-5.41 25.83.06a104.17 104.17 0 0115.37 11.78c5.19 4.87 10.29 10 15.22 15 3.37 3.42 6.86 7 10.36 10.37 9.95 9.72 21.92 14.94 36.6 16a232.65 232.65 0 0131.84 4.47c11.45 2.42 20.82 9.46 27.86 20.91 5.74 9.34 12.79 19.88 23.77 26.77.32.24 32 23.61 65 4.05 11.19-5.8 15.57-15 13.38-28-1.64-9.8-9.92-17.6-21.53-20.32-22.58-7.51-27-20.22-39.73-81.73q-.35-1.72-.63-3.39h-2c.2 1.25.43 2.51.69 3.79C572.4 66.25 577 79.17 600.64 87c10.9 2.56 18.61 9.74 20.11 18.73 2.06 12.26-1.87 20.49-12.36 25.9-31.83 18.9-62.44-3.68-62.82-4-10.69-6.7-17.58-17-23.2-26.16-7.34-12-17.15-19.29-29.16-21.82a235.09 235.09 0 00-32.11-4.52c-14.19-1-25.75-6-35.34-15.39-3.49-3.4-7-6.93-10.34-10.34-4.94-5-10.05-10.18-15.27-15.07a106.49 106.49 0 00-15.64-12.1c-9.32-5.93-19-5.94-28 0A61.28 61.28 0 00336.5 44c-4.77 8.44-5.81 17.67-6.82 26.59-.17 1.46-.33 2.91-.51 4.37a119.24 119.24 0 01-9.57 35.2c-4.41 9.7-10.34 14.39-18.66 14.76a79.13 79.13 0 01-17.26-1.44c-9.58-1.7-16.63 2.21-19.33 10.72-3.12 9.84-3.35 20.32-.69 32.05 1.48 6.52 4.08 14.82 11.12 21.1 7.76 6.93 17.26 8.26 24.66 8.64 4.39.23 8.87.28 13.19.32a199.51 199.51 0 0120.72.94 182 182 0 0118.26 3.43 170.61 170.61 0 0020.25 3.66c12.13 1.2 22.13.13 31.46-3.39 2.69-1 5.34-2.22 7.91-3.38 3.12-1.41 6.35-2.88 9.61-4 5.16-1.75 10.51-1 14.29 2a13.15 13.15 0 014.76 11.86 19 19 0 01-2.84 8c-3.85 6.08-8 12.14-12 18q-2.22 3.25-4.43 6.53c-7.48 11.09-18.47 19.54-34.59 26.6-4.33 1.9-8.8 3.7-13.12 5.45-6.73 2.72-13.69 5.53-20.32 8.77-7.57 3.69-14.69 8.54-21.58 13.23l-1.09.74c-10.38 7.06-22.22 12.39-37.26 16.79-16.14 4.71-25.05 14.14-27.24 28.83-.43 2.9-1.13 5.84-1.81 8.68-.22.92-.43 1.83-.64 2.74-3.77 16.41-11.75 26.59-24.42 31.13a107.47 107.47 0 01-22.25 5c-12.87 1.73-22.71 6.62-30.09 15-3.12 3.52-5.91 6.8-8.53 10-9.8 12.07-23 18.5-39.27 19.1-12.6.47-24.46-3.74-36.28-12.87-10-7.72-20.11-16.2-30.94-25.94-7.92-7.11-15.46-14.95-22.42-22.35z" class="lines"/>
      <path d="M108.12 31.48l.67 1.51c1.69 3.83 3.44 7.8 6 11.13 14.24 18.51 19.82 40.53 23.4 59.62 2.52 13.46 1 26.6-.74 37.68-2.17 13.45-1.81 25.2 1.08 35.93 3.55 13.13 9.94 18.34 25.32 20.66 5.32.8 10.76 1.37 16 1.93 7.88.84 16 1.7 23.87 3.34 17.82 3.71 29.48 14.8 33.71 32.06 3.17 12.92 1.2 22.63-6.2 30.56a12.28 12.28 0 01-10.16 4.1c-6.13-.48-12.35-1.12-18.37-1.73l-7.11-.72c-.52 0-1-.12-1.56-.2a23 23 0 00-3-.28h-31.49c-18.2-.21-32.35-7.69-40.93-21.65-7.94-12.91-19.52-16.66-34.47-18.31l-.9-.1c-3.32-.37-6.76-.76-10.17-.89-13.21-.53-25.86 3.77-37.57 12.78-5 3.81-9.7 8.06-14.28 12.17-3 2.73-6.19 5.55-9.37 8.21-1.24 1-2.47 2.1-3.71 3.17-2.67 2.26-5.35 4.55-8.14 6.67v2.5c3.28-2.38 6.38-5.05 9.41-7.66 1.23-1 2.45-2.11 3.69-3.14 3.2-2.69 6.36-5.52 9.41-8.26 4.56-4.09 9.26-8.31 14.16-12.08 10.72-8.24 22.22-12.41 34.21-12.41.69 0 1.38 0 2.07.05 3.34.13 6.74.51 10 .87l.9.1c14.37 1.59 25.47 5.15 33 17.38 8.95 14.57 23.69 22.38 42.61 22.6 6.28.07 12.66.05 18.83 0h12.67a20.85 20.85 0 012.77.26c.55.08 1.09.16 1.64.21 2.37.23 4.73.48 7.1.72 6 .61 12.27 1.25 18.42 1.74a14.24 14.24 0 0011.8-4.77c7.8-8.35 10-18.95 6.69-32.4-4.44-18.06-16.62-29.67-35.25-33.55a242.62 242.62 0 00-24.05-3.28c-5.24-.55-10.66-1.13-15.93-1.92-14.6-2.2-20.35-6.87-23.68-19.21-2.83-10.44-3.17-21.92-1.05-35.08 1.81-11.25 3.31-24.61.73-38.37-3.62-19.33-9.28-41.62-23.77-60.46-2.42-3.14-4.12-7-5.76-10.73l-.68-1.52c-4.33-9.72-3.5-19.88-2-29.41.07-.42.15-.83.22-1.25h-2c0 .31-.11.62-.16.93-1.59 9.79-2.43 20.3 2.12 30.5z" class="lines"/>
      <path d="M974 362.79c-4.14-3.38-9.22-5.51-16-6.69a1.17 1.17 0 00-.42 0 1.07 1.07 0 00-.4 0c-8.84 1.33-14.82 5.44-18.27 12.55s-3.22 14 .68 19.92c2.63 4 6.61 6 12.08 6a30.36 30.36 0 006.31-.73c9.21-1.94 15.52-6.09 19.27-12.69 4.01-7.03 2.88-13.37-3.25-18.36zm1.53 17.33c-3.45 6.07-9.32 9.91-17.95 11.73-8 1.69-13.21.3-16.3-4.38-3.54-5.36-3.73-11.4-.55-18s8.63-10.22 16.77-11.44h.17c6.42 1.12 11.2 3.11 15.06 6.27 5.43 4.46 6.35 9.62 2.82 15.82z" class="lines"/>
      <path d="M1000.92 490.32a139 139 0 0016.88 8.21v-2.18a132.7 132.7 0 01-15.85-7.74c-7.76-4.66-12.56-10.48-14.67-17.79a8.5 8.5 0 01.64-6.57 5.64 5.64 0 013.67-2.71 20.2 20.2 0 002.53-.81c.69-.25 1.34-.49 2-.66 1.88-.49 3.8-.93 5.66-1.34 5.21-1.17 10.59-2.38 15.64-5.11l.38-.22v-2.3l-1.33.76c-4.8 2.6-9.82 3.73-15.13 4.92-1.88.42-3.82.85-5.72 1.36-.76.19-1.48.46-2.19.71a20.24 20.24 0 01-2.29.74 7.58 7.58 0 00-4.94 3.65 10.59 10.59 0 00-.85 8.14c2.27 7.81 7.36 14.01 15.57 18.94z" class="lines"/>
      <path d="M713.33 10.14h1.62c6.73 0 13.24-1.47 19.55-2.9 2.64-.6 5.36-1.21 8-1.71l4.37-.79c6-1.08 12.2-2.2 18.19-3.8A29.74 29.74 0 00768 0h-7.39c-4.68 1.09-9.45 2-14.1 2.79l-4.37.79c-2.72.51-5.47 1.13-8.12 1.73-6.69 1.51-13.6 3.08-20.66 2.83a14.94 14.94 0 01-12.33-6.57c-.39-.52-.75-1-1.08-1.57h-2.32a24.88 24.88 0 001.79 2.76c3.7 4.89 7.98 7.16 13.91 7.38z" class="lines"/>
      <path d="M696.39 536.8c1.6-7.76-.81-14.94-7-20.79-9.64-9.13-20.92-13.82-33.53-13.92a1 1 0 00-.26 0 1.17 1.17 0 00-.42 0c-12.46 2.1-23.42 8.43-33.51 19.36-9.88 10.7-14.24 20.77-13.73 31.67.69 14.38 9.38 23.08 23.86 23.88 2.5.14 5.13.24 7.83.24a67.45 67.45 0 0023.57-3.72c18.65-6.87 29.5-18.88 33.19-36.72zM631.92 575c-13.33-.73-21.33-8.74-22-22-.49-10.34 3.7-19.94 13.2-30.22 9.78-10.59 20.37-16.73 32.37-18.75h.09a.88.88 0 00.24 0c12.09.1 22.91 4.6 32.18 13.37 3.93 3.73 8.23 10 6.39 18.94-3.54 17.1-14 28.64-31.91 35.26-10.43 3.93-21.3 3.92-30.56 3.4z" class="lines"/>
      <path d="M993.34 101.82c-14.19-8.76-27.17-16.26-42.3-19.15a40.22 40.22 0 00-7-.5c-1 0-2.09 0-3.12-.08a1 1 0 00-.3 0 1 1 0 00-.45 0c-13.56 2.78-20.85 11.57-22.28 26.89-.49 5.18-.82 9.77-1 14-.24 5.5-.43 11.09-.61 16.49-.36 10.66-.74 21.68-1.53 32.48-1.32 17.93.41 33.26 5.29 46.87 4.42 12.33 13.09 20.49 25.09 23.61a25.6 25.6 0 006.49.85c7.08 0 13.85-3.09 19.88-9.13 11.92-12 24.19-25.15 33.15-40.67a48.41 48.41 0 006.17-22.92c.23-7.54.23-15 0-22.06s-.56-14.66-1.54-22.09a33.21 33.21 0 00-15.94-24.59zm15.48 68.74a46.48 46.48 0 01-5.9 22c-8.85 15.32-21 28.4-32.84 40.26-7.42 7.44-15.64 10-24.45 7.76-11.32-2.95-19.52-10.68-23.71-22.35-4.78-13.34-6.47-28.41-5.17-46.06.79-10.83 1.17-21.87 1.52-32.55.19-5.4.37-11 .61-16.47.19-4.23.52-8.8 1-13.95 1.34-14.32 8.11-22.53 20.69-25.11h.2c1.06 0 2.13.07 3.2.08a37.88 37.88 0 016.65.47c14.79 2.82 27.6 10.22 41.62 18.88a31.31 31.31 0 0115 23.21c1 7.34 1.28 14.84 1.52 21.89s.29 14.44.06 21.94z" class="lines"/>
      <path d="M890.5 212.1q-2.68 4.82-5.33 9.64l-2.68 4.86c-7.17 13-2.89 21.24 5.74 29.64 7.53 7.31 17.09 10.11 27.91 12.76l6.5 1.63c9.49 2.39 19.3 4.86 29.13 6.2a104.81 104.81 0 0013.9.91 121.22 121.22 0 0014.79-.93c8.71-1.07 10.21-5.16 11.38-13.59.23-1.65.41-3.34.57-5 .26-2.47.52-5 1-7.47 1.92-10.18 6.78-19.77 15.75-31.08 3.11-3.92 6.05-7.7 8.66-11.55v-3.62a165.77 165.77 0 01-10.22 14c-9.19 11.58-14.17 21.43-16.15 31.95-.48 2.53-.75 5.13-1 7.64-.16 1.61-.33 3.28-.56 4.9-1.17 8.42-2.58 11-9.65 11.88a110.15 110.15 0 01-28.17 0c-9.72-1.31-19.47-3.77-28.91-6.15l-6.51-1.63c-10.53-2.59-19.83-5.29-27-12.26-9.69-9.41-11.15-16.79-5.39-27.23l2.68-4.86c1.77-3.22 3.53-6.43 5.32-9.63 7.9-14.13 9.41-29.62 10.45-46.94.53-8.88-.06-17.94-.62-26.7-.1-1.47-.19-2.94-.28-4.41-.32-5.22-1-10.5-1.68-15.6-.26-2-.52-4-.76-6-.39-3.24-.8-6.47-1.21-9.7-.79-6.16-1.61-12.52-2.23-18.79-1-9.68 5.14-14.5 10.43-16.83a74.11 74.11 0 0111.83-3.67c1.79-.45 3.64-.91 5.45-1.42h.16c1.83.16 3.7.27 5.5.37a87.14 87.14 0 0111.87 1.23c11.79 2.34 22.67 7.75 31.77 12.73 5.06 2.77 10.29 5.43 15.35 8 7 3.54 14.17 7.19 21 11.19a33.88 33.88 0 018.53 6.87v-2.92a37.6 37.6 0 00-7.52-5.68c-6.88-4-14.11-7.69-21.1-11.25-5-2.56-10.26-5.21-15.3-8-9.23-5.05-20.29-10.54-32.34-12.93a87.69 87.69 0 00-12.14-1.26c-1.79-.11-3.64-.21-5.45-.37a.91.91 0 00-.33 0 1.06 1.06 0 00-.53 0c-1.78.51-3.62 1-5.41 1.41a75.9 75.9 0 00-12.15 3.78c-8.35 3.78-12.47 10.47-11.63 18.96.63 6.3 1.44 12.68 2.23 18.84q.63 4.85 1.22 9.69c.24 2 .5 4 .76 6 .66 5.07 1.35 10.31 1.66 15.46.09 1.47.19 2.94.28 4.42.56 8.7 1.14 17.7.62 26.45-1.02 17.05-2.5 32.3-10.19 46.06z" class="lines"/>
      <path d="M960.57 107.1c-.76-.16-1.51-.39-2.3-.63l-1.13-.34a1 1 0 00-.52 0 1.08 1.08 0 00-.36 0c-13.11 1.35-17.07 11-19.4 21.27-3.48 15.27-7.41 32.58-6.91 50.25.3 10.54 2.81 18.89 7.66 25.53 4.29 5.87 9.16 9.23 14.47 10a16 16 0 002.3.17c4.77 0 9.8-2 15-6.06 15.14-11.75 22.89-28.05 22.43-47.15a217.87 217.87 0 00-2-26.11c-2.39-16.03-16.66-24.4-29.24-26.93zm7.56 98.54c-5.58 4.34-10.88 6.18-15.77 5.49s-9.18-3.75-13.13-9.17c-4.61-6.3-7-14.29-7.28-24.4-.5-17.42 3.41-34.6 6.86-49.76 2.5-11 6.46-18.57 17.66-19.72h.15l1.06.32c.8.25 1.63.5 2.49.68 11.92 2.39 25.42 10.27 27.6 25.19a215.94 215.94 0 012 25.86c.47 18.69-6.77 34.01-21.64 45.51z" class="lines"/>
      <path d="M853.21 177.61c7.11-11.45 6.28-21.49-2.69-32.55-7.38-9.1-17.84-14.94-32-17.86a57.4 57.4 0 00-9.4-.89c-1.38-.06-2.82-.12-4.21-.22a.83.83 0 00-.32 0 1.19 1.19 0 00-.42 0c-10.35 1.76-17.14 8.26-19.64 18.8-1.58 6.62-2.9 14.48-.79 22.48a40.33 40.33 0 011 7.69 49.31 49.31 0 00.71 6.7c1.84 9.4 6.62 16.26 13.81 19.83a26.79 26.79 0 0012 2.67 36 36 0 0015.61-3.76c11.72-5.75 20.35-13.23 26.34-22.89zm-53.06 22.2c-6.61-3.28-11-9.66-12.74-18.43a49 49 0 01-.68-6.43 41.76 41.76 0 00-1-8.08c-2-7.58-.71-15.13.8-21.51 2.31-9.7 8.54-15.67 18-17.29h.26c1.43.1 2.88.16 4.28.22a56 56 0 019.08.85c13.66 2.82 23.74 8.44 30.81 17.16 8.47 10.43 9.23 19.48 2.55 30.24-5.78 9.32-14.15 16.57-25.57 22.15-8.85 4.31-18.49 4.75-25.79 1.12z" class="lines"/>
      <path d="M1011.2 35.94a59.2 59.2 0 006.6.93v-2a61.12 61.12 0 01-6.21-.9c-8.47-1.71-14.39-5.77-16.68-11.43-2.22-5.49-.89-12.21 3.75-18.92q1.3-1.89 2.69-3.63h-2.54c-.61.81-1.21 1.64-1.8 2.5-5 7.28-6.43 14.66-4 20.8 2.6 6.32 9.04 10.81 18.19 12.65z" class="lines"/>
      <path d="M1008.15 59.92a63.78 63.78 0 009.65 1.62v-2a60 60 0 01-9.15-1.55c-19.16-4.89-32.89-13.71-41.95-27-4.53-6.63-5.33-13.71-2.31-20.48A92.86 92.86 0 01969.93 0h-2.32a94.79 94.79 0 00-5.05 9.73c-3.27 7.33-2.39 15.29 2.49 22.42 9.35 13.67 23.45 22.76 43.1 27.77z" class="lines"/>
      <path d="M921.93 4.31a28.2 28.2 0 01-2.19 2c-3.16 2.46-4.9 5.54-5 8.91-.16 3.68 1.63 7.43 5 10.57a128.38 128.38 0 0014.59 11.6c21.42 14.55 39.58 25.21 57.15 33.52 5.6 2.64 11.51 4.8 17.22 6.89 3 1.1 6.07 2.24 9.09 3.44v-2.18c-2.81-1.09-5.63-2.15-8.4-3.16-5.68-2.08-11.54-4.22-17-6.83-17.52-8.27-35.6-18.87-56.92-33.37a126.36 126.36 0 01-14.37-11.41c-3-2.73-4.52-5.94-4.4-9a10 10 0 014.3-7.43c.84-.66 1.61-1.4 2.35-2.11A22.39 22.39 0 01926 3.44c1.59-1.11 3.16-2.27 4.73-3.44h-3.38c-.83.6-1.66 1.21-2.5 1.8a24 24 0 00-2.92 2.51z" class="lines"/>
      <path d="M1013.14 373.34c-4.5-14.19-14.54-25.33-29.84-33.1l-.93-.47a224.81 224.81 0 00-23.73-10.92 46.55 46.55 0 00-11.5-2.15c-1.69-.17-3.44-.35-5.12-.6a1.06 1.06 0 00-.4 0 1 1 0 00-.46 0c-19.69 4.21-31.66 17.39-36.6 40.3-2.56 11.87-.24 23.89 6.89 35.73 7.22 12 15.73 20.56 26 26.18 6.11 3.35 13.14 6.52 20.75 6.52a25.84 25.84 0 006.88-.91 24.86 24.86 0 009.86-5.2c9.59-8.66 17.71-15.72 27.42-21.25 17.03-9.69 15.33-19.8 10.78-34.13zm-39.53 53.9a22.63 22.63 0 01-9 4.76c-9.54 2.58-18.2-1.08-26.15-5.43-10-5.45-18.22-13.78-25.26-25.46-6.86-11.39-9.1-22.92-6.65-34.27 4.76-22.07 16.23-34.75 35.07-38.77h.1c1.73.26 3.5.44 5.22.61a45.32 45.32 0 0111 2 226.34 226.34 0 0123.51 10.83l.93.48c14.81 7.51 24.51 18.25 28.85 31.92 4.78 15.07 5.36 23.12-9.86 31.79-9.87 5.67-18.07 12.8-27.76 21.54z" class="lines"/>
      <path d="M648.8 18.51c.05 4.82-2.85 8.9-8.39 11.82-7.87 4.13-15.55 4.37-20.54.61s-6.66-10.67-4.9-19.22c.18-.91 1.73-7.81 5.89-11.72h-2.75c-3.46 4.2-4.81 9.9-5.1 11.32-1.92 9.33.14 17.07 5.66 21.22a16.08 16.08 0 009.82 3.06 28 28 0 0012.85-3.5c7.89-4.15 9.5-9.69 9.46-13.61C650.74 12.07 646.11 5 639.1 0h-3.69c7.91 4.59 13.33 12 13.39 18.51z" class="lines"/>
      <path d="M652.67 330c-16.16-4.55-21-14.81-26.52-26.7-2.61-5.56-5.3-11.32-9.35-16.91-5.78-8-15.77-11.22-29.67-9.66-12.52 1.41-25.14 6.45-31.55 9.33-15.8 7.1-4.84 36.67 1 52.56.39 1.06.76 2 1.08 2.93 9.23 25.37 22.6 42.16 39.73 49.93a59.89 59.89 0 0025 5.12c18.27 0 35.86-6.83 47.88-11.5 3.92-1.53 7.3-2.84 10-3.64 6-1.82 9.18-5.87 9.13-11.73-.12-14.35-19.01-34.73-36.73-39.73zm27 49.54c-2.74.83-6.16 2.15-10.12 3.69-17.21 6.69-46 17.89-71.32 6.42-16.62-7.53-29.63-23.94-38.67-48.78-.32-.9-.69-1.88-1.08-2.94-5.26-14.19-16.21-43.71-2.11-50 10.44-4.7 45.54-18.59 58.78-.33 3.94 5.44 6.59 11.11 9.15 16.58 5.53 11.83 10.76 23 27.79 27.78 18 5.08 35.18 25.62 35.29 37.83.07 4.88-2.52 8.21-7.68 9.72z" class="lines"/>
      <path d="M595.41 329.93c-7.56-.67-13.13.64-16.55 3.91a9.88 9.88 0 00-3.2 7.39c1.18 26.79 16.67 29.36 28 31.23 1.8.3 3.51.58 5.06.94a14.36 14.36 0 003.18.38 9.9 9.9 0 006.92-2.63c4.86-4.51 5.49-13.38 4.46-20.18-1.88-12.3-11.51-19.57-27.87-21.04zm22 39.76c-2.11 1.95-4.9 2.54-8.29 1.76-1.62-.37-3.35-.66-5.18-1-11.23-1.86-25.2-4.18-26.32-29.35a8.09 8.09 0 012.59-5.86c2.43-2.32 6.39-3.51 11.56-3.51 1.09 0 2.24.05 3.43.16 15.56 1.39 24.32 7.9 26.06 19.34 1.22 7.95-.26 15.18-3.82 18.46z" class="lines"/>
      <path d="M562.5 506.08c4.63 0 9.12-4.08 11.21-6.3C583.9 489 588 481.65 586.87 476c-.74-3.89-3.86-7-9.8-9.78-10.93-5.11-13.75-.15-16.74 5.09a38.24 38.24 0 01-2.64 4.22c-5.84 7.79-7.08 22.87-.14 28.72a7.52 7.52 0 004.95 1.83zm-3.21-29.39a42.45 42.45 0 002.78-4.43c2-3.53 3.55-6.24 7.26-6.24a17 17 0 016.9 2c5.3 2.49 8.06 5.14 8.67 8.35.94 4.92-3.07 11.93-12.64 22.06-5.28 5.6-10 7.12-13.42 4.28-6.01-5.1-4.84-18.97.45-26.02z" class="lines"/>
      <path d="M568.76 991.74c15-17.39 43.77-16.09 44.09-16.08 3.87.08 6.91-1.22 8.64-3.6s2-5.61.77-9.17a33.68 33.68 0 00-2.55-5.35c-.32-.6-.65-1.2-1-1.8-1.22-2.33-2.52-4.67-3.77-6.94a127.8 127.8 0 01-7.53-15c-3.9-9.91-7.16-20.28-10.31-30.31l-1.26-4c-.37-2.33-8.59-50-50.35-51.76-20.94-.94-37.27 8.37-49.95 28.42-2.35 3.73-5.05 7.35-7.66 10.84-1.74 2.34-3.54 4.75-5.23 7.18-4.95 7.13-12.26 11.2-22.34 12.47-19.05 2.38-32.37 10.3-41.92 24.9-7.24 11.06-15.48 21.76-23.45 32.1-3.4 4.41-6.91 9-10.3 13.48l-2.56 3.44c-3.71 5-7.54 10.09-11.44 15-8.26 10.46-18.43 15.46-31.18 15.25h-1.39c-9.12-.14-18.56-.28-27.23-3.61-11.41-4.37-19.81-12.72-27.19-21.1-9.08-10.3-17.51-19.34-28.69-25.77a66.61 66.61 0 00-30-8.6q-7.14-.37-14.27-.71c-8.27-.39-16.82-.8-25.22-1.33-17.58-1.12-32.27 6-44.92 21.84-2.82 3.53-6 6.88-9.11 10.12-2.59 2.72-5.28 5.54-7.75 8.46-9 10.71-14.81 24-17.61 40.52h2c2.76-16 8.36-28.87 17.11-39.23 2.43-2.88 5.1-5.67 7.67-8.37 3.12-3.27 6.35-6.65 9.22-10.25 12.39-15.48 26.12-22.17 43.24-21.1 8.41.54 17 1 25.24 1.34 4.76.23 9.51.45 14.26.7a64.59 64.59 0 0129.18 8.33c10.92 6.27 19.23 15.19 28.19 25.36 7.55 8.56 16.16 17.11 28 21.64 9 3.46 18.62 3.6 27.92 3.74h1.39c13.36.22 24.11-5 32.78-16 3.92-5 7.75-10.1 11.47-15.08l2.56-3.43c3.38-4.51 6.89-9.06 10.28-13.46 8-10.37 16.27-21.1 23.54-32.23 9.2-14.07 22.07-21.7 40.5-24 10.53-1.32 18.51-5.8 23.73-13.31 1.67-2.4 3.46-4.8 5.19-7.12 2.63-3.53 5.36-7.18 7.75-11 12.26-19.39 28-28.37 48.18-27.49 40.91 1.69 48.39 49.65 48.47 50.13a.45.45 0 000 .16l1.28 4.07c3.16 10.06 6.43 20.47 10.36 30.44a130.4 130.4 0 007.64 15.28c1.25 2.25 2.54 4.57 3.74 6.88.32.62.66 1.23 1 1.84a32.12 32.12 0 012.41 5c1 2.92.82 5.53-.49 7.34s-3.82 2.84-7 2.79a73.94 73.94 0 00-16.89 1.55c-8.63 1.73-20.62 5.78-28.79 15.28-8.38 9.75-11.21 23.26-8.44 40.18h2c-2.7-16.46-.04-29.53 7.99-38.87z" class="lines"/>
      <path d="M102.75 888.21a125.61 125.61 0 00-31.17-33.3c-8.32-6.23-17.75-6.95-28-2.13-2.63 1.23-5.27 2.56-7.82 3.84-6.18 3.09-12.56 6.3-19.13 8.38A171 171 0 010 869.2v2a173.93 173.93 0 0017.21-4.33c6.73-2.14 13.18-5.37 19.42-8.5 2.55-1.28 5.18-2.6 7.78-3.82 9.69-4.54 18.18-3.91 26 1.92a123.71 123.71 0 0130.68 32.77 40 40 0 014.81 32.61c-2.08 7.62-6.06 15.22-12.15 23.22s-14.6 11.95-25.19 11.55a237.26 237.26 0 00-47.18 3.17C14 961 6.92 961.94 0 962.58v2c7-.65 14.22-1.57 21.67-2.79a235.6 235.6 0 0146.78-3.15c11.24.45 20.29-3.72 26.86-12.34 6.25-8.21 10.34-16 12.49-23.9a41.87 41.87 0 00-5.05-34.19z" class="lines"/>
      <path d="M391.14 1019.11c-.92-12.09 4.39-22.69 10.27-32.35C410 972.68 422 961.15 433.61 950l5.68-5.47c5.11-5 10.59-7.76 16.29-8.26 8.47-.73 17.12-1.11 25.49-1.47l1.46-.06c7.54-.33 12.69-3 15.72-8.07a68.69 68.69 0 006.59-14.23c.06-.22 6.13-21.64 23.39-29.78a33.48 33.48 0 0114.43-3.15q9.86 0 21.26 5.09c10.26 5.59 16.25 15.06 18.83 29.8 1.35 7.77 1.64 13.85.91 19.14-1.46 10.47-8.19 17.11-19.47 19.18h-.13c-19 6-31.93 16.37-38.55 30.68-8.32 18-4.34 37.84-1.61 47.19h2.1c-2.65-8.8-6.89-28.56 1.34-46.35 6.38-13.77 18.92-23.72 37.29-29.59 12.18-2.26 19.45-9.48 21-20.86.76-5.51.47-11.79-.92-19.76-2.7-15.41-9-25.33-19.88-31.23h-.06c-14.14-6.34-26.72-7-37.41-1.95-18.11 8.55-24.21 30.14-24.45 31a66.78 66.78 0 01-6.38 13.77c-2.71 4.54-7.18 6.8-14.09 7.1l-1.47.06c-8.39.36-17.06.74-25.57 1.48-6.17.54-12.06 3.51-17.52 8.82l-5.66 5.46c-11.71 11.24-23.82 22.87-32.53 37.17-6.05 9.94-11.52 20.89-10.55 33.54a39.37 39.37 0 002.43 11.35h2.18a36.31 36.31 0 01-2.61-11.49z" class="lines"/>
      <path d="M244.89 477.29c7.66-4.37 16.15-6.39 24.35-8.34 3.64-.87 7.39-1.76 11.05-2.85 8.51-2.53 17.25-4.86 25.69-7.1l7.27-1.94 3.16-.85c12.31-3.32 25-6.76 38.11-7.15 10.73-.32 18.61 4.42 24.1 14.5a81.87 81.87 0 019.38 32.12c1.07 11.4 2.27 23.53 4 35.54 1.95 13.21 9.84 21 22.82 22.59 9.24 1.12 18.77.74 28 .37L447 554c19.72-.72 37.33-7.86 53.43-15.46 9.81-4.63 14.74-12.71 15.5-25.41.19-3.27.23-6.59.27-9.81a118.94 118.94 0 011-16.56c1.58-10.19 3.78-17.86 6.92-24.12 7.72-15.41 5.06-29-8.37-42.81-14.81-15.21-30.81-25.61-48.91-31.8l-1.74-.6c-13-4.45-26.51-9.05-37.47-18.14A29.15 29.15 0 01416.94 350c-.41-3.08-.76-6.23-1.1-9.29-.92-8.23-1.87-16.75-4.17-24.78-5-17.47-16.78-24-34.95-19.34-11.15 2.85-22.35 7.49-35.24 14.61l-.71.39a246.23 246.23 0 01-23.72 12c-16.47 6.89-27.3 18.89-33.11 36.7a83.75 83.75 0 01-16.7 29.68A63.5 63.5 0 01230.3 411c-15.32 2.79-28.24 8.59-39.47 17.74a76.73 76.73 0 01-35 15.77c-17 3.12-35.06 4.68-51.73-5-7.43-4.3-14.42-9.72-21.18-15l-1.75-1.36c-9.32-7.22-18.7-14.69-27.77-21.91q-7.87-6.27-15.77-12.53c-10.81-8.41-18.56-17.31-23.72-27.11A83.64 83.64 0 000 342.42v2.93a81.5 81.5 0 0112.14 17.18c5.29 10.05 13.21 19.16 24.22 27.85q7.91 6.24 15.77 12.52c9.07 7.23 18.45 14.7 27.78 21.93l1.75 1.36c6.81 5.29 13.86 10.76 21.41 15.13 17.23 10 35.69 8.39 53.09 5.19a78.58 78.58 0 0035.93-16.18c11-8.93 23.58-14.59 38.57-17.32a65.5 65.5 0 0038.08-21.76 85.71 85.71 0 0017.1-30.38c5.62-17.22 16.08-28.83 32-35.47a246.54 246.54 0 0023.9-12.1l.71-.39c12.75-7 23.8-11.62 34.78-14.42 17.16-4.39 27.79 1.49 32.53 18 2.25 7.86 3.19 16.29 4.1 24.44.34 3.07.69 6.24 1.11 9.34a31.47 31.47 0 0011.39 20.62c11.25 9.32 24.9 14 38.1 18.49l1.75.6c17.79 6.09 33.53 16.33 48.11 31.3 12.94 13.28 15.41 25.78 8 40.52-3.24 6.46-5.49 14.31-7.11 24.71a120.67 120.67 0 00-1 16.85c0 3.19-.08 6.49-.27 9.71-.71 11.9-5.27 19.44-14.36 23.72-15.89 7.48-33.28 14.52-52.58 15.21l-4.13.16c-9.15.36-18.6.74-27.68-.36-12.15-1.46-19.25-8.49-21.08-20.89-1.77-12-3-24.07-4-35.44a83.52 83.52 0 00-9.66-32.88c-5.88-10.81-14.33-15.9-25.91-15.55-13.3.4-26.15 3.87-38.57 7.22l-3.16.85-7.26 1.94c-8.46 2.25-17.21 4.57-25.75 7.11-3.6 1.08-7.33 2-10.94 2.82-8.34 2-17 4-24.88 8.55-12.92 7.37-18.25 19.19-15 33.29 1.73 7.54 5.61 13.91 9.36 20.07.64 1.05 1.28 2.11 1.91 3.17 5.11 8.57 8.2 16 6.69 24.3a95.66 95.66 0 01-3.87 13.5c-.66 1.93-1.34 3.93-1.95 5.91q-2.37 7.66-4.76 15.33l-2.36 7.19c-4.54 14.71-16.22 31.71-16.33 31.84l-.08.12c-.93 1.86-1.85 3.73-2.78 5.6-2 4.08-4.09 8.29-6.23 12.37-2 3.78-4 7.59-6 11.28-3.14 5.8-6.39 11.79-9.38 17.78-4.26 8.53-7.7 16.24-10.52 23.59-4.18 10.86-11.18 20.18-18 29.2l-.43.57a62.26 62.26 0 00-8.07 13.22c-3 7.16-3.14 14.2-.51 20.34 3 7 9.34 12.53 18.4 16.06a87.66 87.66 0 0027.93 6.17c10.48.46 19.93-3.88 27.34-12.53l1.78-2.09c5.61-6.6 11.41-13.41 18.89-18.38 9-5.93 22.45-4.62 28.88 2.82l1.5 1.73c3.94 4.52 7.66 8.78 10.35 14.12a25.38 25.38 0 011.35 20.77 69.44 69.44 0 00-4.25 20.78c-.48 12.84 14.07 32.74 25.52 34.92 4 .77 8.63 1.34 12-.18 13.13-5.95 26.71-12.11 35.4-24.7a38.84 38.84 0 006.43-29.18c-2.51-15.61-4.11-30.78 3.81-44.77 3.85-6.81 8.64-15.28 14.44-22.3a217.39 217.39 0 0164.13-52.28 48.53 48.53 0 0130.36-5.57c7.66 1 15.52 1.48 23.12 1.91l2.94.16c12.47.73 24.3-3.2 35.18-11.66.94-.72 1.93-1.36 3-2 .49-.31 1-.62 1.46-1a9.45 9.45 0 017.3-1.65c6.27 1.2 11.14 8.32 11.24 8.46 4.79 5.8 7.31 12.85 9.75 19.67 1.13 3.16 2.3 6.44 3.69 9.57 2.47 5.59 5.54 11 8.51 16.25l.49.85c2.38 4.21 4.86 8.44 7.27 12.53 2.88 4.89 5.85 10 8.66 15 10.2 18.32.62 35-10.7 43.76-7.25 5.93-15.12 8.45-23.39 7.51-18.38-2.1-33-20.69-33.09-20.88l-.09-.1c-8.59-8.49-24.53-9.47-34.8-2.13-7.6 5.43-11.23 13.34-14.29 21l-.38.95c-6.15 15.36-12.51 31.24-23.5 44.26-8.71 10.33-20 20.74-37.17 19.65-8.16-.52-13.95-4-17.7-10.5-2.76-4.82-4.11-10.55-4.27-18-.27-13.23-.51-28.62.06-43.94.35-9.4 1.49-17.15 3.5-23.69 5.3-17.31 16.52-30.57 34.3-40.55 14.42-8.08 27.68-8.24 40.54-.47 2.86 1.73 5.81 3.4 8.66 5 4.24 2.4 8.62 4.88 12.75 7.58l1.61 1c6 3.89 12.16 7.91 17.1 12.92l1.17 1.18c6.53 6.65 12.71 12.93 22.57 14.43h.15c11.54 0 19.61-3.13 24-9.29 4.8-6.79 4.87-16.89.22-30-8.58-24.28-22.6-22-24.29-21.66-16.48-.46-33.52-3.15-53.64-8.49-17.61-4.67-30.77-4-42.67 2.21A146.29 146.29 0 00427.46 703C412 715 402 725.83 395.09 738.2a72.25 72.25 0 00-9.09 37.52c.2 10.79.19 19.1 0 26.95a112.78 112.78 0 01-10 44.55A148 148 0 01362.53 871c-9.56 13.46-24.73 19-38.32 22.64-8.78 2.36-15.48 1.61-21.09-2.36-3.38-2.38-7.19-5.22-9.7-8.76-8.95-12.65-17.84-25.67-26.44-38.26q-4.83-7.08-9.67-14.15c-4.7-6.85-9.31-11-15-13.31a14.79 14.79 0 00-5.35-1.08c-16-.25-32.07-3.14-45.86-5.82-10.09-2-19.57.4-26.7 6.65a71.47 71.47 0 00-21.38 33.85c-4.91 16.29.3 31.22 6.05 43.68 7 15.2 18.83 25.27 35.14 29.93 11.95 3.41 24.7 3.5 39 .26a244.69 244.69 0 0131.86-5.41c8.81-.81 17.39 2.49 26.22 10.09 2.05 1.76 4.09 3.62 6.05 5.42 3.54 3.24 7.19 6.58 11.09 9.51 8.45 6.33 16.35 8.83 24.16 7.65 15.34-2.32 26.35-10.38 32.71-24a250.22 250.22 0 0011-26.11c3.7-11 11.53-17.06 25.37-19.78 12.67-2.48 27.63-5.38 42.49-8 14.45-2.53 26.56-10.38 37-24 6.37-8.27 12.49-17 18.41-25.34q3.58-5.07 7.18-10.12c6.95-9.71 20.72-19.25 65.93-6.79 40.8 11.25 45.1 36.11 45.14 36.36v.14c1.45 4.77 2.88 9.64 4.25 14.35 2.18 7.44 4.43 15.13 6.84 22.64.53 1.64 1 3.29 1.55 4.94 2.22 7.17 4.51 14.58 8.17 21.15 11.57 20.75 37.21 29.81 61 21.54 14.18-4.93 28.14-10 41.52-15 5.92-2.24 12.14-4.94 19.58-8.52a71.4 71.4 0 0040.12-75.52c-1.92-12.49-6.45-17.8-17.32-20.29a26.66 26.66 0 00-5.19-.53c-2.79-.07-5.63-.09-8.38-.1-5.44 0-11.07 0-16.55-.52-13.84-1.17-23.12-10.27-31.44-19.49-5.29-5.87-11-12-17.75-16.52-3.83-2.59-6.58-4-9.21-3.34-2.48.59-4.58 2.83-7.48 8a95.24 95.24 0 00-4.32 9.16c-1.18 2.76-2.4 5.61-3.83 8.27-8.94 16.61-22 24-40 22.51-4-.33-6.57-2.87-6.47-6.47a28.42 28.42 0 011.92-10.1c1.86-4.49 4-9 6-13.33 2.15-4.64 4.38-9.43 6.35-14.25 5.36-13.08 5.34-26.46-.05-38.71-5.26-11.94-10.94-23.92-16.44-35.51-3.11-6.57-6.33-13.36-9.43-20.06a111.43 111.43 0 01-9.43-32.2c-.49-3.66-.94-7.31-1.39-11-.2-1.65-.41-3.3-.61-5 .25-17.75-3-29.35-10.32-36.5-5.93-5.81-14.3-8.45-25.6-8-28.57 1-39.24 41.61-39.91 44.29-5.77 13.37-19 19.71-36.43 17.41-4.85-.64-10.46-1.26-15.75-.42-9.91 1.59-19.59 5.87-30.5 13.52-13.87 9.72-28.21 19.78-42.46 29.44-4.14 2.81-8.44 5.53-12.6 8.16-6.27 4-12.74 8.06-18.81 12.54-4.79 3.54-9.34 7.54-13.73 11.41-4.17 3.67-8.48 7.47-13 10.84-9.51 7.14-19.4 8-29.38 2.63-5.84-3.16-10.51-7.82-15-12.33-1.53-1.52-3.11-3.1-4.75-4.63-6.32-5.91-12.87-12-21.91-14.21-4.24-1-8.5-2-12.75-3q-5.37-1.25-10.75-2.52c-8.9-2.13-13.65-6.51-15.39-14.21-2.22-9.86-.13-18.92 2.21-26.48 2-6.45 4.43-12.9 6.78-19.13 1-2.79 2.09-5.57 3.11-8.36.07-.19 7.08-19 20.25-31.73a.53.53 0 00.12-.14c1.25-1.77 2.47-3.56 3.68-5.34 2.64-3.88 5.37-7.88 8.35-11.56 9-11.12 11.73-21.59 8.64-32.95-2.44-8.94-7.27-16.3-11.67-22.33-.9-1.23-1.85-2.45-2.77-3.63a58.43 58.43 0 01-6-8.79c-5.55-10.73-4.18-14.08 4.22-21.7a10.82 10.82 0 013.44-1.75l.2-.08c3.23-1.2 6.45-2.42 9.66-3.63 8.77-3.32 17.82-6.75 26.84-9.79 7.89-2.66 18.39-5.66 29.61-5.16 9.26.4 16.16 4.55 21.12 12.69 5.31 8.71 8 19 8.44 32.47.05 1.45.08 2.9.11 4.35a97.61 97.61 0 001.05 14.76c1 6 2.43 12.81 5.66 18.25 9 15.19 24.9 18.07 39.06 19.57 2.58.27 5.21.39 7.75.51 2.71.13 5.51.26 8.23.57 3.95.46 8 1 11.86 1.61 5.95.86 12.09 1.76 18.19 2.23a88.09 88.09 0 0034.86-4.25c51.27-7.86 120.63-77.21 121.32-77.91l.09-.1c1-1.32 2-2.67 3-4 3.37-4.62 6.86-9.39 11-13.22 8.59-7.89 19.84-10.21 33.44-6.89 14.39 3.51 28.91 9.38 45.72 18.48 18.85 10.2 20.2 23.28 16.42 39.78-3.42 15-11.11 28-18.19 38.73a132.86 132.86 0 01-21.43 25.22 11.87 11.87 0 01-3.35 1.83c-.62.25-1.26.52-1.87.82l-.09.06a113.62 113.62 0 00-24.35 22.43c-14.44 18.22-17.81 37-9.73 54.25A61.81 61.81 0 00694 709.81c21.68 2.73 43.39-6.28 58.05-24.12 5.73-7 8.23-13 7.64-18.48-.86-8-8-13.64-16.18-20.14-13.19-10.43-28.14-22.26-21.73-48.19l8.74-23.68q10.38-28.14 20.74-56.27c3.86-10.47 5.32-20.09 4.48-29.42-1.31-14.5-10-24.26-25.2-28.23a100.27 100.27 0 00-13.34-2.2 95.75 95.75 0 01-13.07-2.15 276.61 276.61 0 01-26.29-8.79l-4.15-1.54c-11.5-4.24-21.66-5.76-32-4.77h-.16c-.11 0-11.31 2.88-28.66.72-16-2-40.69-8.77-67.32-29.78l-.11-.07c-2.32-1.37-4.74-2.66-7.08-3.91-5.07-2.71-10.32-5.51-14.63-9.18-16.89-14.37-33.54-25.45-50.89-33.89-12.09-5.88-20.29-15-25.08-28-3.66-9.88-7.62-21.63-9.32-33.83-2.18-15.77 2.1-23 15.79-26.74 10-2.72 18-7.26 24.44-13.9 1.69-1.74 3.36-3.49 5-5.25a237 237 0 0117.57-17c14.51-12.31 28.9-20.3 44-24.41 68.32-16.51 97.92-68.45 99-70.43 9.21-13.19 13.55-25.12 13.67-37.53 0-3.84.26-7.75.47-11.53.19-3.43.38-7 .45-10.46.16-9 3.58-14.1 11.41-17 22.3-8.33 45.07-19.81 71.65-36.13 9.65-5.92 18.89-7.82 28.25-5.8s15.66 7.83 18.72 17.26c.82 2.53 1.46 5.19 2.07 7.76a88.7 88.7 0 002.57 9.23c5.79 16.26 20.21 23.38 38.57 19a36.47 36.47 0 0012.3-5.63c4.58-3.25 7.21-7.17 7.81-11.68.71-5.37-1.59-11.45-6.66-17.58-4.13-5-8.76-9.68-13.24-14.22-2.71-2.74-5.5-5.57-8.15-8.43A46.39 46.39 0 01812.42 0h-2a48.39 48.39 0 0012.28 24.74c2.67 2.89 5.48 5.74 8.2 8.49 4.45 4.5 9 9.16 13.12 14.09 4.71 5.69 6.85 11.24 6.22 16-.53 3.93-2.87 7.4-7 10.31A34.38 34.38 0 01831.61 79c-17.27 4.08-30.81-2.55-36.23-17.76a88.1 88.1 0 01-2.5-9c-.63-2.6-1.27-5.3-2.12-7.9-3.24-10-10.23-16.46-20.2-18.61-9.75-2.1-19.75-.06-29.71 6-26.47 16.26-49.13 27.68-71.31 36-8.61 3.22-12.53 9-12.71 18.86-.07 3.46-.26 7-.45 10.38-.21 3.81-.43 7.75-.47 11.63-.11 12-4.36 23.59-13.34 36.45a.21.21 0 00-.06.1c-.29.52-29.32 53-97.79 69.49-15.39 4.2-30 12.32-44.78 24.83a233.22 233.22 0 00-17.62 17.23l-5 5.24c-6.27 6.46-13.74 10.7-23.52 13.36-14.74 4-19.58 12.13-17.25 28.94 1.72 12.4 5.73 24.27 9.42 34.25 5 13.46 13.51 23 26.08 29.08 17.2 8.36 33.71 19.36 50.48 33.62 4.47 3.8 9.81 6.66 15 9.41 2.3 1.23 4.68 2.5 6.94 3.84 27 21.28 52.09 28.15 68.37 30.16 17.11 2.11 28.09-.48 29.22-.76 10-.95 19.85.53 31 4.66l4.15 1.54c8.59 3.19 17.47 6.5 26.47 8.85a98.67 98.67 0 0013.34 2.2 95.75 95.75 0 0113.07 2.15c14.5 3.79 22.48 12.69 23.72 26.47.81 9-.62 18.37-4.37 28.55q-10.35 28.14-20.74 56.26l-8.75 23.74a.45.45 0 000 .11c-6.76 27.22 9.41 40 22.41 50.29 7.87 6.21 14.66 11.58 15.43 18.79.53 4.9-1.83 10.46-7.19 17-14.23 17.3-35.26 26.05-56.26 23.41a59.83 59.83 0 01-46.73-34.5c-18.5-39.55 31.53-73 33.3-74.12.54-.27 1.1-.5 1.69-.75a13.25 13.25 0 003.94-2.19 135.59 135.59 0 0021.76-25.6c7.16-10.9 15-24.1 18.46-39.39 4.71-20.57-.34-32.73-17.42-42s-31.64-15.11-46.19-18.66c-14.3-3.49-26.17-1-35.27 7.36-4.31 4-7.85 8.82-11.29 13.51-1 1.32-1.92 2.64-2.9 3.94-2.16 2.16-70.17 69.69-120.25 77.31h-.17a86.2 86.2 0 01-34.2 4.23c-6-.47-12.14-1.36-18.05-2.22-3.9-.57-7.94-1.15-11.92-1.62-2.79-.32-5.63-.45-8.37-.58-2.51-.11-5.11-.24-7.63-.5-13.68-1.45-29-4.2-37.55-18.61-3.05-5.14-4.4-11.76-5.41-17.56a94.31 94.31 0 01-1-14.46c0-1.46-.06-2.92-.11-4.38-.46-13.79-3.24-24.42-8.73-33.44-5.3-8.77-12.79-13.23-22.76-13.63-11.55-.5-22.29 2.55-30.34 5.27-9.05 3-18.13 6.48-26.9 9.81-3.22 1.21-6.43 2.43-9.65 3.63l-.2.08a12.39 12.39 0 00-4.1 2.14c-9 8.19-10.73 12.35-4.64 24.1a59.33 59.33 0 006.24 9.1c.91 1.17 1.86 2.38 2.74 3.58 4.29 5.88 9 13.05 11.35 21.68 2.91 10.68.28 20.59-8.27 31.16-3 3.74-5.78 7.78-8.44 11.69-1.19 1.75-2.38 3.5-3.6 5.23-13.47 13-20.61 32.23-20.68 32.43-1 2.78-2.06 5.56-3.1 8.33-2.36 6.26-4.8 12.74-6.82 19.24-2.27 7.36-4.59 17.14-2.25 27.52 1.9 8.42 7.26 13.42 16.88 15.71 3.58.86 7.17 1.69 10.76 2.53q6.38 1.47 12.73 3c8.53 2.06 14.88 8 21.05 13.76 1.58 1.48 3.15 3 4.67 4.56 4.62 4.61 9.39 9.37 15.49 12.67C321.19 743 331.8 742 342 734.38c4.54-3.42 8.88-7.24 13.08-10.93 4.36-3.85 8.88-7.82 13.6-11.31 6-4.44 12.45-8.51 18.69-12.46 4.17-2.64 8.49-5.37 12.65-8.19 14.27-9.68 28.62-19.74 42.53-29.49 10.61-7.44 20-11.62 29.62-13.15 5-.8 10.47-.2 15.17.42 18.39 2.43 32.44-4.37 38.57-18.68a.88.88 0 00.05-.15c.1-.42 10.63-41.89 38.06-42.85 10.73-.37 18.61 2.07 24.13 7.48 6.89 6.75 10 17.9 9.72 35.11v.14l.63 5c.45 3.67.9 7.33 1.38 11a113.9 113.9 0 009.6 32.78c3.11 6.71 6.33 13.5 9.45 20.08 5.49 11.57 11.16 23.55 16.41 35.46s5.25 24.4 0 37.14c-2 4.78-4.17 9.55-6.32 14.17-2 4.36-4.12 8.87-6 13.4a30.54 30.54 0 00-2.02 10.82c-.14 4.69 3.2 8.11 8.31 8.53 18.57 1.5 32.67-6.42 41.9-23.56 1.47-2.73 2.71-5.63 3.91-8.43a95.19 95.19 0 014.22-9c2.56-4.57 4.36-6.61 6.2-7s4.34.84 7.64 3.06c6.53 4.42 12.17 10.42 17.38 16.2 8.58 9.52 18.19 18.91 32.75 20.15 5.56.47 11.23.49 16.71.52 2.74 0 5.57 0 8.34.1a23.83 23.83 0 014.8.48c10 2.3 14 7 15.78 18.64a69.41 69.41 0 01-39 73.42c-7.39 3.55-13.56 6.23-19.43 8.44-13.36 5-27.31 10.1-41.46 15-22.85 8-47.49-.72-58.58-20.62-3.56-6.39-5.82-13.7-8-20.77-.51-1.66-1-3.32-1.55-5-2.41-7.48-4.66-15.16-6.83-22.59-1.37-4.69-2.79-9.54-4.23-14.3-.31-1.86-5.16-26.49-46.58-37.92-36.2-10-57.2-7.65-68.08 7.55q-3.62 5.05-7.19 10.14c-5.91 8.37-12 17-18.37 25.28-10.14 13.18-21.85 20.78-35.79 23.22-14.87 2.61-29.84 5.5-42.52 8-14.44 2.84-23 9.54-26.89 21.09a246.91 246.91 0 01-10.89 25.91c-6.06 12.94-16.56 20.62-31.2 22.84-7.25 1.09-14.66-1.29-22.66-7.28-3.82-2.87-7.44-6.18-10.94-9.38-2-1.81-4-3.68-6.09-5.47-9.27-8-18.33-11.42-27.72-10.56a247.2 247.2 0 00-32.12 5.45c-13.94 3.16-26.37 3.09-38-.23-15.73-4.5-27.12-14.2-33.88-28.84-5.59-12.12-10.67-26.62-5.95-42.27a69.63 69.63 0 0120.78-32.93c6.66-5.83 15.55-8 25-6.18 13.87 2.69 30 5.59 46.21 5.85a12.51 12.51 0 014.61.93c5.27 2.19 9.61 6.08 14.08 12.59q4.84 7.07 9.67 14.15c8.6 12.59 17.49 25.62 26.46 38.28 2.69 3.8 6.66 6.77 10.17 9.25 6.05 4.27 13.5 5.14 22.77 2.66 13.93-3.74 29.51-9.44 39.43-23.42a148.47 148.47 0 0013.61-24.12 114.73 114.73 0 0010.17-45.34c.21-7.88.22-16.22 0-27a70.29 70.29 0 018.88-36.51c6.76-12.12 16.58-22.78 31.85-34.57A144.19 144.19 0 01450 691.19c11.42-6 24.13-6.58 41.23-2.05 20.32 5.39 37.55 8.11 54.22 8.56a1.24 1.24 0 00.27 0c.56-.14 13.76-3.14 22.06 20.36 4.42 12.51 4.44 22 0 28.22-4 5.59-11.45 8.44-22.27 8.45-9.16-1.42-15.09-7.45-21.37-13.84l-1.14-1.22c-5.09-5.16-11.36-9.24-17.43-13.18l-1.61-1c-4.18-2.73-8.59-5.22-12.85-7.64-2.84-1.6-5.78-3.27-8.61-5-13.53-8.17-27.46-8-42.56.44-18 10.1-29.85 24.13-35.23 41.7-2.06 6.72-3.23 14.63-3.59 24.21-.57 15.37-.33 30.8-.06 44.05.16 7.82 1.6 13.85 4.54 19 4.05 7.07 10.55 10.94 19.3 11.5 18.13 1.16 29.79-9.65 38.83-20.36 11.19-13.27 17.61-29.3 23.83-44.8l.38-.95c3-7.37 6.43-15 13.59-20.1 9.35-6.68 24.37-5.8 32.19 1.88 1.06 1.36 15.49 19.42 34.4 21.58 8.83 1 17.2-1.66 24.86-7.92 11.93-9.22 22-26.88 11.21-46.3-2.82-5.06-5.8-10.14-8.69-15.05-2.4-4.08-4.88-8.3-7.25-12.49l-.49-.86c-2.94-5.19-6-10.56-8.42-16.07-1.36-3.07-2.52-6.31-3.64-9.44-2.5-7-5.08-14.2-10-20.18-.22-.32-5.37-7.87-12.47-9.23a11.34 11.34 0 00-8.8 2l-1.42.91c-1 .67-2.12 1.36-3.12 2.14-10.64 8.27-21.7 12-33.84 11.25l-2.95-.17c-7.56-.43-15.38-.87-23-1.89a50.52 50.52 0 00-31.58 5.79 219.6 219.6 0 00-64.71 52.77c-5.91 7.15-10.75 15.71-14.64 22.58-8.24 14.56-6.62 30.11-4 46.08a36.48 36.48 0 01-6.1 27.73c-8.38 12.13-21.7 18.17-34.58 24-2.85 1.29-7.05.74-10.78 0-9.63-1.83-24.38-20.1-23.9-32.87a67.47 67.47 0 014.14-20.2 27.27 27.27 0 00-1.46-22.33c-2.79-5.56-6.77-10.12-10.62-14.54l-1.5-1.72c-7-8.14-21.75-9.63-31.49-3.18-7.73 5.12-13.62 12-19.31 18.75l-1.78 2.08c-7 8.18-15.91 12.28-25.74 11.84a85.29 85.29 0 01-27.24-6c-8.55-3.34-14.53-8.52-17.29-15-2.41-5.64-2.23-12.14.52-18.79a60 60 0 017.82-12.78l.43-.58c6.86-9.12 13.95-18.56 18.22-29.68 2.81-7.29 6.22-15 10.45-23.41 3-6 6.22-11.94 9.34-17.72 2-3.7 4.08-7.52 6.06-11.31 2.15-4.11 4.24-8.33 6.26-12.41q1.37-2.78 2.74-5.53c.78-1.14 12.06-17.8 16.59-32.32l2.24-7.18q2.38-7.66 4.76-15.33c.61-2 1.28-3.94 1.93-5.86a97.9 97.9 0 003.95-13.78c1.8-9.94-2.64-18.47-6.94-25.68-.63-1.07-1.28-2.13-1.92-3.19-3.84-6.3-7.46-12.25-9.12-19.48-3.03-13.22 1.96-24.27 14.04-31.16z" class="lines"/>
      <path d="M812.79 1005.84c1.8-11.48 8.05-19.94 18.58-25.13 13.61-6.7 25.36-16.49 35.73-25.13a50.78 50.78 0 0113.68-7.82c3.85-1.52 7.27-1.62 10.14-.32 3.05 1.38 5.39 4.28 7 8.62s2.83 8.67 4.1 13c.64 2.16 1.28 4.32 1.95 6.47 2.51 8.1 8 12.78 14.94 12.84h.09c5.19 0 10.54-2.86 15.28-5.38a93.52 93.52 0 009.72-6.31c1.93-1.37 3.92-2.79 5.93-4.07a43 43 0 0123.46-6.89h19.48c8.15 0 16.43-.32 24.94-1.1v-2a249.27 249.27 0 01-24.93 1.11h-19a44.91 44.91 0 00-25 7.19c-2.06 1.31-4.07 2.74-6 4.13a91 91 0 01-9.51 6.18c-4.52 2.41-9.64 5.15-14.34 5.15h-.1c-6-.05-10.81-4.22-13-11.43-.67-2.14-1.31-4.3-1.94-6.45-1.28-4.31-2.59-8.76-4.14-13.07-1.72-4.79-4.49-8.17-8-9.76s-7.33-1.44-11.7.28a52.4 52.4 0 00-14.23 8.15c-10.28 8.56-21.94 18.27-35.34 24.87-11.15 5.49-17.76 14.45-19.66 26.61-1 6.3-1.89 13.05-1.13 20.29.17 1.64.4 3.23.69 4.79h2a59.47 59.47 0 01-.74-5c-.74-7.05.09-13.66 1.05-19.82z" class="lines"/>
      <path d="M7 679.65c10.86-.62 21.79.73 32.35 2.05 3 .37 6 .75 9 1.08 14.25 1.57 26 1.23 36.83-1.06 15.08-3.19 30-9.78 46.8-20.74 11.47-7.47 18.52-17.72 20.95-30.47 10.16-21.09 8.11-31.69 8-32.13v-.11c-.11-.33-.24-.66-.36-1a10.75 10.75 0 01-.59-1.89c-2.91-15.81-12.08-25.67-27.27-29.3-9.07-2.17-18.61-1.5-30 2.11a192 192 0 01-36.32 8.06c-9 1-18.3 2.1-26.48 7.43-3.26 2.11-6.73 4-10.09 5.93-2.08 1.17-4.24 2.37-6.33 3.61-2.69 1.59-4.65 2.12-6 1.6s-2.38-2.2-3.41-5.59A132.88 132.88 0 0110 568.94c-1.4-10.37-4.72-18.84-10-25.6v3.41c4.15 6.12 6.82 13.55 8.06 22.47a134.93 134.93 0 004.13 20.61c.91 3 2.1 5.91 4.6 6.88 2 .76 4.42.21 7.72-1.75 2.07-1.23 4.21-2.42 6.29-3.58 3.38-1.9 6.88-3.85 10.2-6 7.79-5.06 16.85-6.11 25.62-7.12a194.09 194.09 0 0036.69-8.13c11-3.5 20.24-4.16 28.95-2.07 14.54 3.48 23 12.54 25.76 27.72a13.33 13.33 0 00.69 2.22c.1.28.21.56.31.85.13.79 1.6 11.18-7.93 30.92a1.25 1.25 0 00-.09.25c-2.29 12.25-9.06 22.1-20.1 29.29-16.63 10.83-31.28 17.33-46.11 20.46-10.66 2.25-22.17 2.58-36.2 1-3-.33-6-.7-9-1.07C29 678.39 18 677 6.93 677.65q-3.55.2-6.93.13v2a97 97 0 007-.13z" class="lines"/>
      <path d="M136.76 908.91l2.87 6.19c6.07 13.09 18.46 17 29.6 19.68 19.32 4.62 39.12 4.25 58.27 3.9 2.83-.06 5.67-.11 8.5-.15 12.5-.18 23.74 3.93 34.31 12.51 4.46 3.62 8.83 7.52 13.07 11.29 3.57 3.18 7.26 6.48 11 9.6 10.88 9.07 23.06 13 36.2 11.68 16.83-1.69 30.16-9.05 39.63-21.88 10-13.48 19.57-27.65 28.57-41 10.8-16 25.16-25.89 43.91-30.13 15-3.39 27.86-11.89 38.14-25.26 2.79-3.63 4.8-6.54 6.74-9.35 2.52-3.64 4.9-7.08 8.65-11.62.21-.22 21.48-22.76 58.65-8h.12c.4.1 40.45 11.07 55.33 68.56a63.47 63.47 0 0026.48 37l5.06 3.41c7 4.75 14.33 9.67 21.42 14.6 8.29 5.77 16.33 6.44 24.56 2q2.53-1.37 5.09-2.71c4.75-2.52 9.66-5.12 14.42-7.83 5-2.84 10-5.79 14.87-8.64 6.09-3.58 12.4-7.27 18.66-10.79 3.27-1.83 6.71-3.53 10-5.17a130.63 130.63 0 0016.39-9.09c9-6.19 17.78-13 26.29-19.49 4.86-3.74 9.89-7.61 14.89-11.32 7.38-5.48 15-11.58 19.17-20.46a198.13 198.13 0 008-20.73l.11-.34c2.78-8.1 7.74-14 14.34-17.11s14.56-3.18 22.38-.21c7.36 2.8 13.94 7.91 20.11 15.62 1.9 2.38 3.78 4.77 5.67 7.16 5.6 7.08 11.39 14.4 17.44 21.3 5.2 5.93 12.83 9.51 22.07 10.36 10.52 1 21-.78 31-2.47l6.2-1c9.47-1.47 17.82-2.95 25.54-4.51 2.64-.54 5.29-1 8-1.56 3.07-.58 6.18-1.18 9.29-1.82v-2c-3.23.67-6.47 1.29-9.67 1.9-2.66.51-5.32 1-8 1.56-7.69 1.55-16 3-25.45 4.5-2.07.32-4.14.67-6.21 1-10 1.67-20.27 3.39-30.54 2.45-8.84-.82-15.82-4.07-20.75-9.69-6-6.86-11.79-14.16-17.37-21.22q-2.83-3.6-5.68-7.17c-6.4-8-13.26-13.31-21-16.24-8.33-3.16-16.83-3.07-23.94.27s-12.42 9.64-15.38 18.27l-.12.34a196.44 196.44 0 01-7.91 20.52c-4 8.47-11.37 14.38-18.55 19.71-5 3.72-10 7.6-14.92 11.34-8.49 6.53-17.26 13.27-26.2 19.43a128.13 128.13 0 01-16.08 9.04c-3.35 1.66-6.82 3.37-10.14 5.23-6.28 3.52-12.59 7.22-18.69 10.8-4.86 2.85-9.88 5.8-14.85 8.63-4.73 2.7-9.63 5.29-14.37 7.8l-5.1 2.71c-7.5 4-14.85 3.39-22.47-1.91-7.1-4.94-14.39-9.86-21.44-14.62l-5.06-3.41c-13.17-8.89-21.8-21-25.66-35.9-7.92-30.59-22.89-48-34.06-57.18-11.78-9.7-21.68-12.53-22.65-12.79-38.45-15.25-60.58 8.28-60.83 8.56-3.85 4.64-6.25 8.11-8.79 11.8-1.93 2.79-3.93 5.67-6.69 9.26-10 13-22.43 21.24-37 24.53-19.27 4.36-34 14.49-45.13 31-9 13.34-18.6 27.48-28.52 40.93-9.12 12.36-22 19.45-38.22 21.08-12.59 1.27-24.27-2.51-34.72-11.23-3.71-3.1-7.39-6.38-11-9.55-4.25-3.79-8.64-7.71-13.14-11.36-10.95-8.88-22.58-13.08-35.6-13l-8.51.15c-19 .35-38.69.71-57.77-3.84-13.63-3.26-23.11-7.5-28.25-18.58l-2.87-6.19c-6.64-14.26-13.5-29-19.52-43.8-7.38-18.1-18-31.15-32.58-39.88S57.31 814 43.2 819.47a73.58 73.58 0 00-20.72 12.13A91 91 0 010 845.8v2.2a92.06 92.06 0 0023.77-14.86 72 72 0 0120.16-11.79c13.5-5.27 27.46-3.67 41.52 4.77S110 847.33 117.2 865c6.04 14.85 12.91 29.63 19.56 43.91z" class="lines"/>
      <path d="M271.06 1030.61c3.77-10.78 2.19-22.08-4.8-34.35-9.45-16.58-24.85-26.31-47.09-29.73A188.29 188.29 0 00191 964.7h-.25a1.1 1.1 0 00-.54 0c-1.36.4-2.82.73-4.23 1-3.27.73-6.65 1.49-9.39 3.29-5.89 3.87-12.53 8.64-17.17 14.69a296.72 296.72 0 00-22.14 33.53 42.92 42.92 0 00-5 13.32h2a41.94 41.94 0 014.74-12.33A294.92 294.92 0 01161 985c4.46-5.81 10.93-10.46 16.67-14.24 2.44-1.6 5.5-2.28 8.73-3 1.44-.32 2.92-.66 4.34-1.07a1 1 0 00.24 0 187.69 187.69 0 0127.88 1.8c21.6 3.33 36.54 12.73 45.66 28.75 6.82 12 8.27 22.93 4.42 33.36z" class="lines"/>
      <path d="M46.13 930c6.82-5.85 13.1-12.72 12.92-23.27-.09-5.1-2.28-9.07-6.17-11.19-4.17-2.27-9.67-5-15.31-5.56-7.18-.78-14.53-.91-21.63-1-2.93 0-5.95-.1-8.92-.2a.86.86 0 00-.28 0 1 1 0 00-.49 0c-2 .51-4.11 1-6.17 1.46H0v2.06l.53-.13c2.07-.47 4.14-1 6.2-1.46h.21c3 .09 6 .15 9 .2 7.06.12 14.37.25 21.46 1 5.29.57 10.56 3.14 14.56 5.32 3.23 1.76 5.06 5.13 5.13 9.47.16 9.19-4.77 15.33-12.22 21.72s-16.23 10.78-27.16 13.74A69.23 69.23 0 010 944.85v2a71.59 71.59 0 0018.23-2.78c11.22-3.02 20.35-7.65 27.9-14.07z" class="lines"/>
      <path d="M208.73 846.84a96.26 96.26 0 00-12.13-2.29c-1.79-.26-3.64-.53-5.44-.84a1.17 1.17 0 00-.42 0 1.05 1.05 0 00-.63 0c-1.39.57-2.86 1.09-4.28 1.59a43.74 43.74 0 00-9.31 4.11c-15.12 9.78-15.61 30.08-7.4 43.27 4.88 7.86 11.11 13.06 19 15.91a38.62 38.62 0 0013.1 2.32c7.12 0 14.45-2 22.15-6a61.11 61.11 0 0013.18-9.15c11.23-10.36 11.95-21.23 2.14-32.29-8.69-9.73-20.57-14.01-29.96-16.63zm26.5 47.54a59.21 59.21 0 01-12.75 8.83c-12 6.22-23 7.38-33.66 3.55-7.47-2.68-13.36-7.61-18-15.08-7.71-12.39-7.3-31.41 6.8-40.53a42.21 42.21 0 018.88-3.91c1.41-.49 2.86-1 4.26-1.57h.07c1.83.32 3.69.59 5.5.85a95.12 95.12 0 0111.87 2.23c9.13 2.56 20.68 6.69 29 16.11 9.22 10.39 8.59 19.77-1.97 29.52z" class="lines"/>
      <path d="M442 742.7a1 1 0 00-.26 0 1.1 1.1 0 00-.51 0c-15.46 4.13-19.5 17-22.08 28.78a88.9 88.9 0 00-2 20.71 68 68 0 003 19.74c2.86 8.58 7.66 11.6 11.2 12.62a13.82 13.82 0 003.88.53 21.35 21.35 0 0013.23-5.27c11.18-9.18 17.09-21.5 17.56-36.61a51.87 51.87 0 00-8.72-31.1c-4.11-6.32-8.99-9.32-15.3-9.4zm22.08 40.47c-.46 14.51-6.12 26.32-16.83 35.13-4.95 4.07-10.66 5.69-15.29 4.36-4.4-1.27-7.81-5.19-9.85-11.33a66.17 66.17 0 01-2.94-19.16 87.55 87.55 0 011.93-20.23c3-13.87 7.71-23.82 20.64-27.27a.85.85 0 00.23 0c5.67.08 9.9 2.71 13.72 8.52a50 50 0 018.39 29.98z" class="lines"/>
      <path d="M6 790.35c7.54-3.1 16-4.34 24.19-5.55 6.33-.93 12.82-1.64 19.09-2.31 7.68-.84 15.63-1.7 23.38-3 7-1.17 16.74-3.94 20.29-14.49 2.53-7.51 1.23-15.38-3.74-22.77-5.59-8.29-14.63-12.73-27.62-13.55-13.47-.85-26.3 2.63-39.34 6.59A57 57 0 010 737.5v2a58.89 58.89 0 0022.79-2.32c12.86-3.9 25.5-7.34 38.63-6.5 12.51.79 20.79 4.81 26.09 12.67 3.21 4.78 6.44 12.3 3.51 21-2.48 7.36-8.25 11.41-18.73 13.16-7.7 1.28-15.61 2.14-23.27 3-6.29.68-12.79 1.38-19.16 2.32C21.55 784 13 785.31 5.2 788.5l-2.72 1.11-2.48 1v2.16l3.25-1.34z" class="lines"/>
      <path d="M143.26 702.57c1.09-2.25 1.06-4.41-.07-5.92s-3.28-2.19-5.84-1.78c-4.1.66-10.15 1.85-15.25 4.6-10.06 5.43-20.72 6.78-33.64 7.15-6.23.18-12.58.13-18.73.08-5.82 0-11.84-.09-17.77 0-7.42.19-15 .51-22.25.83-9.74.42-19.78.84-29.71.94v2c10-.1 20-.52 29.8-.94 7.28-.32 14.81-.64 22.21-.83 5.9-.14 11.9-.09 17.71 0 6.16 0 12.53.1 18.79-.08 13.21-.38 24.13-1.78 34.53-7.39 4.84-2.61 10.67-3.75 14.63-4.39 1.8-.29 3.23.08 3.92 1s.62 2.31-.13 3.87a68.37 68.37 0 01-7.82 12.29c-8.77 11.29-13 24-12.59 37.69.18 5.64.57 11.37 1 16.9.36 5.28.73 10.74.92 16.11.24 7.16-5.51 13.76-13.09 15-7.26 1.21-14.54.14-21.57-.9-1.55-.23-3.09-.46-4.64-.66-10.1-1.35-22-2.46-33.79-.47C35.3 800.18 20.8 806 5.5 815.42q-2.71 1.68-5.5 3.12v2.24c2.21-1.12 4.4-2.33 6.56-3.66 15.07-9.31 29.33-15 43.6-17.41 11.52-1.94 23.24-.85 33.2.48 1.53.2 3.07.43 4.61.66 7.19 1.06 14.62 2.16 22.19.89 8.55-1.43 15-8.93 14.75-17.07-.18-5.4-.55-10.88-.92-16.18-.37-5.51-.76-11.22-.94-16.83-.4-13.23 3.69-25.48 12.17-36.39a70 70 0 008.04-12.7z" class="lines"/>
      <path d="M459.76 1021.67h.06c5.18.89 8.45 4 9.65 8.93h2c-1.28-6-5.19-9.84-11.35-10.9a1.17 1.17 0 00-.42 0 1 1 0 00-.65 0c-6.95 3-8.28 4.39-8.17 10.83h2c-.12-5.48.75-6.21 6.88-8.86z" class="lines"/>
      <path d="M40.76 1017.3c-8.69-7.45-18.5-7.83-27.8-7.6a.78.78 0 00-.22 0 1 1 0 00-.46 0A49.18 49.18 0 000 1014v2.26a47.21 47.21 0 0112.69-4.62h.05a1.12 1.12 0 00.27 0c8.91-.23 18.3.13 26.44 7.12a23.16 23.16 0 017.41 11.79h2.06a25.18 25.18 0 00-8.16-13.25z" class="lines"/>
      <path d="M43.91 995.71c-9.82-4.16-20.1-4.1-30-4H8.77a1.06 1.06 0 00-.5 0c-1.82.47-3.7.9-5.52 1.31l-2.75.65v2.05l3.17-.72c1.83-.42 3.72-.85 5.57-1.32a1 1 0 00.24 0h4.92c9.74-.07 19.79-.13 29.22 3.87 11.64 4.94 18.72 11.32 22.28 20.09a44.15 44.15 0 013 13h2a45.92 45.92 0 00-3.19-13.72c-3.73-9.32-11.15-16.05-23.3-21.21z" class="lines"/>
      <path d="M174.13 1026.54c-2.22-16.13 9-33 24.6-36.87h.19c1.74.1 3.52.14 5.25.17a55.69 55.69 0 0111.06.94c16 3.6 22.52 12.42 20.52 27.73a60.36 60.36 0 01-2.81 12.07h2.11a63.73 63.73 0 002.68-11.81c2.13-16.32-5.09-26.12-22.06-29.94a57.35 57.35 0 00-11.47-1c-1.7 0-3.46-.07-5.16-.17a1.05 1.05 0 00-.31 0 1 1 0 00-.49 0c-16.5 4.09-28.46 22-26.1 39.08.18 1.29.41 2.55.67 3.8h2c-.24-1.26-.49-2.62-.68-4z" class="lines"/>
      <path d="M86.71 1006.59C85 995.09 75.5 989.2 67.39 985.36c-13.24-6.28-27.76-9.44-44.39-9.66a1 1 0 00-.26 0 1.17 1.17 0 00-.42 0l-1.93.36a26.75 26.75 0 01-4 .6c-5.85.3-11.3.77-16.43 1.4v2c5.16-.64 10.64-1.11 16.54-1.41a30.93 30.93 0 004.24-.63c.62-.13 1.25-.25 1.87-.36h.09a.85.85 0 00.23 0c16.34.22 30.59 3.31 43.56 9.46 7.67 3.64 16.66 9.16 18.2 19.72a140.21 140.21 0 011.42 23.73h2a141.56 141.56 0 00-1.4-23.98z" class="lines"/>
      <path d="M414.17 1016.67c-.32-13.73 5.37-25.41 16.92-34.72 10.29-8.28 20.94-13.27 32.57-15.27h.2l7.49 1c9.23 1.24 16.55 5.68 22.39 13.56 5.49 7.41 6.3 16.28 7.09 24.86l.07.69c.43 4.75.57 9.63.7 14.34.09 3.11.19 6.3.37 9.47h2c-.18-3.18-.28-6.39-.37-9.52-.13-4.75-.27-9.66-.71-14.48l-.07-.68c-.81-8.86-1.65-18-7.47-25.87-6.18-8.34-13.94-13-23.73-14.35l-7.5-1a1 1 0 00-.38 0 1.19 1.19 0 00-.42 0c-12 2.06-22.93 7.19-33.48 15.68-12.06 9.72-18 21.94-17.67 36.33a47.24 47.24 0 002.49 13.89h2.12a45.39 45.39 0 01-2.61-13.93z" class="lines"/>
      <path d="M809.56 765.15c4.49 8.05 11.84 12 21.84 11.66a130.9 130.9 0 0121.32 1c7.41 1 14.59 4.75 21.36 11.21 12.21 11.67 23.16 22.77 33.47 33.93 11.33 12.26 23.05 24.94 41.15 28.19 4.56.81 9.24 1.37 13.76 1.9l5.28.64 1.47.19c2.48.32 5 .66 7.6.8 14.89.86 28.47-1.35 41-6.66v-2.18c-12.46 5.43-26 7.69-40.88 6.85-2.48-.14-5-.47-7.45-.79l-1.48-.19c-1.76-.23-3.53-.44-5.3-.65-4.49-.53-9.13-1.08-13.64-1.88-17.44-3.13-28.92-15.56-40-27.58-10.34-11.19-21.32-22.32-33.56-34-7.08-6.76-14.64-10.71-22.48-11.74a134.9 134.9 0 00-21.64-1c-9.34.29-15.88-3.18-20-10.64-5.62-10.09-11.44-20.52-16.41-31.44-6.74-14.79-3.29-26.28 10.56-35.12a152.21 152.21 0 0116.86-9c11.81-5.57 24.63-8 36.72-9.87 4.21-.64 8.56-1 12.77-1.33a144.72 144.72 0 0016.12-1.92c19.29-3.75 38.15-8.07 59.05-12.92 14-3.24 24.4-1.6 33.74 5.32 10.35 7.67 22.5 11.57 37 11.85v-2c-14-.29-25.8-4-35.79-11.45-9.72-7.21-21-9-35.38-5.66-20.88 4.84-39.73 9.15-59 12.9a146.79 146.79 0 01-16 1.89c-4.24.34-8.63.69-12.91 1.34-12.24 1.86-25.23 4.36-37.27 10a153.32 153.32 0 00-17.09 9.09c-14.62 9.33-18.43 22-11.3 37.63 5.03 11.03 10.86 21.48 16.51 31.63z" class="lines"/>
      <path d="M710.21 211.16a28.81 28.81 0 0120.19 12.58c7.73 11.55 15.49 25.6 14.47 42.29-.1 1.61-.19 3.22-.28 4.83-.2 3.66-.4 7.44-.75 11.13-1.37 14.77 5.15 25.73 20.51 34.5 2.43 1.38 4.89 2.74 7.34 4.1 7.75 4.29 15.76 8.73 22.91 14 5.92 4.39 11.2 9.93 16.31 15.28 1.87 2 3.79 4 5.73 5.92 6.51 6.52 14.49 11.35 24.39 14.76 2.71.93 5.43 2.06 8.05 3.15 2.26.95 4.6 1.92 6.95 2.77 13 4.72 20.86 14.86 28.43 25.72a244.14 244.14 0 0114.44 23.39c6.23 11.5 4.74 21.12-4.71 30.28-1.37 1.34-2.76 2.67-4.14 4-6 5.78-12.23 11.76-17.85 18.1-15.75 17.75-9.74 40.28 2.5 53.71 6.25 6.85 15.55 7.08 23.7.56a140.87 140.87 0 0012.6-11.8c1.2-1.23 2.39-2.45 3.59-3.65 1.92-1.92 3.77-3.95 5.57-5.91a95.88 95.88 0 0110.49-10.36c8-6.45 16.68-6.93 25.65-1.44A181.93 181.93 0 01971.54 510c2.36 1.8 4.8 3.66 7.24 5.44 8.87 6.46 18.36 13.33 29 21a40.93 40.93 0 0110 10.24v-3.41a43.68 43.68 0 00-8.85-8.46c-10.64-7.67-20.12-14.54-29-21-2.42-1.76-4.85-3.61-7.2-5.41a185.56 185.56 0 00-15.45-11c-9.77-6-19.17-5.45-27.95 1.58a99.11 99.11 0 00-10.72 10.57c-1.78 2-3.62 4-5.5 5.84-1.21 1.21-2.41 2.44-3.61 3.67a142.11 142.11 0 01-12.37 11.67c-7.27 5.8-15.5 5.67-21-.35-11.65-12.79-17.4-34.21-2.48-51 5.58-6.28 11.76-12.23 17.75-18 1.38-1.33 2.77-2.66 4.14-4 10-9.75 11.71-20.44 5.08-32.67a247 247 0 00-14.56-23.59c-7.45-10.69-15.86-21.54-29.38-26.45-2.31-.84-4.63-1.8-6.87-2.73-2.65-1.11-5.4-2.25-8.17-3.2-9.61-3.31-17.34-8-23.63-14.29-1.92-1.92-3.84-3.93-5.69-5.88-5.17-5.41-10.51-11-16.57-15.5-7.25-5.38-15.32-9.85-23.13-14.18q-3.67-2-7.32-4.09c-14.6-8.33-20.8-18.68-19.5-32.57.34-3.73.55-7.53.75-11.21.09-1.61.17-3.21.27-4.82 1.07-17.28-6.88-31.7-14.8-43.53a30.77 30.77 0 00-21.56-13.44c-3.7-.52-7.48-.79-11.13-1-3.9-.28-7.94-.57-11.83-1.16a83.67 83.67 0 01-16.78-4.43c-8.89-3.35-13.74-10.61-13.65-20.45.06-6.5 2.4-13.52 7.15-21.48 2.51-4.2 5.16-8.42 7.72-12.51 3.07-4.9 6.24-10 9.21-15 11.42-19.53 27.66-34.76 49.67-46.56a17 17 0 014.47-1.37h.25c2.73-.58 4.79-.35 6.12.68s2 2.8 2.11 5.37c.3 6.71.16 13.37 0 18.42-.14 4.36 1.16 7 3.86 7.72 2.18.62 5.36-1.55 6.84-3.07 6.14-6.3 14.35-9.63 24.39-9.88 11.72-.3 23.71.7 35.31 1.67l2.07.17c7.51.62 15.13 1.58 22.5 2.5 3.82.49 7.64 1 11.47 1.4 12.07 1.39 20.31 6.78 25.18 16.49 3.93 7.82 6.36 16.44 7.66 27.12 1.74 14.37-1.21 26.24-9 36.28-7.32 9.41-16.65 17-25.68 24.4-2.9 2.38-5.91 4.83-8.8 7.31a135.91 135.91 0 01-15.68 11c-2.84 1.8-5.78 3.66-8.59 5.6-7.3 5.05-10.35 11.44-8.79 18.49 1.77 8 5.21 13.62 10.53 17.1s11.57 4.48 17.71 5.16c7.88.87 16.81 1.86 24.59 6.43 3.58 2.11 7.18 4.32 10.66 6.47q3.66 2.26 7.34 4.5c8 4.82 15.77 7 23.08 6.4 3.9-.31 7.83-.79 11.65-1.24a157.89 157.89 0 0121.28-1.76c11.21.18 20.69 2.49 29 7.08 5.07 2.81 10.05 6 14.86 9.16s9.71 6.3 14.76 9.11a102.13 102.13 0 0125.87 19.9v-2.92a105.76 105.76 0 00-24.89-18.72c-5-2.79-9.91-6-14.65-9.05s-9.85-6.39-15-9.23c-8.57-4.75-18.35-7.14-29.9-7.33a161.05 161.05 0 00-21.54 1.6c-3.79.46-7.71.93-11.57 1.23-6.88.55-14.25-1.51-21.88-6.12-2.46-1.48-4.9-3-7.33-4.48-3.49-2.15-7.1-4.38-10.7-6.49-8.14-4.79-17.3-5.8-25.38-6.7-20.77-2.3-24.39-11.11-26.51-20.7-1.38-6.28 1.3-11.8 8-16.41 2.78-1.92 5.7-3.77 8.52-5.57a136.82 136.82 0 0015.91-11.18c2.88-2.47 5.87-4.91 8.77-7.28 9.11-7.44 18.53-15.14 26-24.72 8.16-10.48 11.25-22.83 9.44-37.75-1.33-10.92-3.82-19.74-7.86-27.78-5.13-10.21-14.12-16.13-26.74-17.57-3.82-.44-7.64-.92-11.45-1.4-7.39-.93-15-1.89-22.59-2.52l-2.07-.17c-11.64-1-23.69-2-35.52-1.67-10.58.27-19.25 3.8-25.78 10.49-1.53 1.57-3.9 2.8-4.86 2.54-.63-.18-2.56-.72-2.4-5.74s.3-11.79 0-18.57c-.14-3.19-1.11-5.5-2.87-6.86s-4.44-1.77-7.77-1.06l-.25.05a18.34 18.34 0 00-5 1.57c-22.34 12-38.85 27.46-50.46 47.31-3 5.05-6.12 10.1-9.18 15-2.56 4.09-5.22 8.32-7.74 12.55-4.93 8.26-7.36 15.62-7.43 22.48-.09 10.59 5.35 18.73 14.94 22.34a85.13 85.13 0 0017.13 4.58c4 .61 8.06.9 12 1.18 3.62.21 7.36.47 10.98.98z" class="lines"/>
      <path d="M697.12 1010c5.93-26 21.78-45 47.11-56.49 9.38-4.27 20-7.71 33.36-10.83a1 1 0 00.25 0h5.96c4 .15 6.73 2.33 6.94 5.56a81.7 81.7 0 01-.44 12.83c-.61 6.44-1.37 14-2.5 21.44-.28 1.82-.54 3.65-.81 5.48a212.49 212.49 0 01-4.3 23.38 24.73 24.73 0 01-18.14 18.24c-1.3.35-2.61.66-3.93 1H768a26.49 26.49 0 0016.61-18.7 214 214 0 004.35-23.6q.39-2.74.81-5.47c1.13-7.47 1.9-15.09 2.51-21.55a81.92 81.92 0 00.44-13.15c-.27-4.25-3.83-7.24-8.86-7.43-1.4-.05-2.81 0-4.17 0h-1.86a1 1 0 00-.25 0 1.11 1.11 0 00-.48 0c-13.51 3.15-24.23 6.64-33.74 11-25.93 11.8-42.16 31.27-48.22 57.86-1.29 5.63-1.76 13.59 2.49 21.07H700c-4.57-7.24-4.13-15.14-2.88-20.64z" class="lines"/>
      <path d="M984.57 910.39c-4.89 12.7-.89 23.61 11.27 30.71a41.65 41.65 0 0021.69 5.78h.27v-2a39.8 39.8 0 01-20.95-5.48c-11.37-6.64-15-16.42-10.41-28.26 2.74-7.13 8.72-12.15 18.28-15.36 4.25-1.43 8.73-2.48 13.08-3.48v-2c-4.54 1-9.23 2.13-13.72 3.63-10.02 3.29-16.58 8.85-19.51 16.46z" class="lines"/>
      <path d="M669.4 908.13a44.57 44.57 0 0012.73-2.06c17.3-5.18 34.81-10.73 52-16.5 12.6-4.22 20-11.62 22.7-22.63a18.38 18.38 0 00-14.3-23.1 151.83 151.83 0 00-16-2.4c-2-.23-4-.46-6.07-.72-6.32-.82-11.63-1.47-17-2-3.36-.33-6.78-.54-10.09-.74l-4.44-.29a1.09 1.09 0 00-.31 0 1.25 1.25 0 00-.43 0 109.94 109.94 0 00-31.81 11.07c-10.28 5.37-15.8 13.06-16.4 22.86-.9 14.77 3.95 25.63 14.43 32.28a27.3 27.3 0 0014.99 4.23zM642 871.77c.56-9.19 5.58-16.13 15.34-21.22a108.24 108.24 0 0131.23-10.87h.26l4.44.28c3.3.21 6.7.42 10 .74 5.37.52 10.67 1.17 17 2 2 .26 4.06.5 6.09.73a148.11 148.11 0 0115.79 2.36 16.83 16.83 0 0111 7.45 17.17 17.17 0 011.84 13.23c-2.5 10.28-9.5 17.22-21.4 21.21-17.2 5.76-34.68 11.3-52 16.48-10.53 3.15-19.06 2.52-26.07-1.93-9.85-6.23-14.4-16.48-13.52-30.46z" class="lines"/>
      <path d="M942.09 730.72a1.06 1.06 0 00-.47 0 1 1 0 00-.56 0c-9.47 3-11.91 7.71-9 17.2 3.55 11.63 9.54 20.38 17.81 26a19.47 19.47 0 0017.36 1.93 14.25 14.25 0 009.14-9.94c1.86-7.34-1.93-12.61-6.32-17.81a51.1 51.1 0 00-27.96-17.38zm32.32 34.74a12.28 12.28 0 01-7.91 8.54 17.41 17.41 0 01-15.5-1.7c-8-5.44-13.56-13.59-17-24.94-2.57-8.41-.71-12 7.66-14.69a49.16 49.16 0 0126.86 16.76c4.02 4.79 7.48 9.57 5.89 16.03z" class="lines"/>
      <path d="M970.93 719.48c-6.93-3.32-14.1-6.76-21.11-10.21-6.28-3.09-13.33-4.81-22.87-5.57a.89.89 0 00-.33 0 1.06 1.06 0 00-.5 0c-.83.21-1.67.39-2.51.58a48.57 48.57 0 00-5.56 1.48c-10.49 3.69-14.91 10.61-14.31 22.46.62 12.53 5.33 23.59 9.35 31.83 4.53 9.26 9.92 19.95 16.62 29.57 8 11.55 19.49 17.23 34.82 17.23a73.23 73.23 0 0010-.72c15.2-2.09 29.49-7.66 43.3-13.33v-2.16c-13.93 5.72-28.34 11.41-43.57 13.51-19.63 2.7-33.65-2.42-42.88-15.67-6.62-9.51-12-20.11-16.46-29.31-3.94-8.07-8.55-18.89-9.15-31-.55-11 3.33-17.09 13-20.48a48.21 48.21 0 015.34-1.42c.85-.19 1.71-.38 2.56-.59h.17c9.27.74 16.11 2.39 22.15 5.36 7 3.46 14.19 6.9 21.12 10.22s14.26 6.85 21.35 10.34a75.82 75.82 0 0026.39 7.88v-2a73.83 73.83 0 01-25.5-7.67c-7.16-3.48-14.41-6.96-21.42-10.33z" class="lines"/>
      <path d="M969.23 697.88a189.29 189.29 0 00-27.67-10.4c-4.6-1.25-9.52-1.39-14.28-1.51-2.09-.06-4.25-.12-6.34-.27a.83.83 0 00-.32 0 .93.93 0 00-.44 0c-1.34.25-2.69.47-4 .69a62.06 62.06 0 00-9 1.92l-3.31 1c-6.81 2.14-13.85 4.35-20.28 7.6a101.55 101.55 0 01-32.26 9.8c-4.61.65-9.83 1.89-13.64 6.24-2.44 2.79-3.4 5.77-2.7 8.37.48 1.77 1.94 4.19 6.19 5.62 5.27 1.77 9.34 2.24 12.47 1.44 11.6-3 20.69 1.25 27.81 12.86 4.74 7.72 8.81 16.05 12.75 24.11l2.31 4.74c7.09 14.37 16.22 30.87 30.21 44.29 9.17 8.8 20.19 13.45 33.67 14.24 1.51.08 3 .18 4.52.27 5.09.32 10.34.66 15.53.69h.54a81 81 0 0036.9-8.83v-2.24a79.09 79.09 0 01-36.9 9.07h-.53c-5.13 0-10.36-.36-15.41-.68l-4.54-.28c-13-.76-23.58-5.23-32.39-13.68-13.78-13.21-22.8-29.52-29.8-43.74-.78-1.57-1.55-3.15-2.32-4.72-3.95-8.11-8-16.49-12.83-24.29-6.06-9.87-13.48-14.74-22.56-14.74a30.4 30.4 0 00-7.46 1c-2.73.7-6.44.24-11.33-1.4-2.7-.91-4.39-2.37-4.9-4.24s.28-4.26 2.27-6.53c3.38-3.86 8.17-5 12.42-5.58a103.38 103.38 0 0032.89-10c6.28-3.17 13.24-5.36 20-7.47l3.32-1a61.14 61.14 0 018.76-1.86c1.37-.22 2.74-.44 4.09-.7h.24c2.14.15 4.32.21 6.43.27 4.65.12 9.45.25 13.82 1.44a190 190 0 0127.38 10.29c16.27 7.3 31.39 10.86 46.23 10.85h3.15v-2h-2.94c-14.74.06-29.66-3.42-45.75-10.64z" class="lines"/>
      <path d="M998.81 1030.61h2.54a52.94 52.94 0 0116.45-14.26v-2.27a55.3 55.3 0 00-18.99 16.53z" class="lines"/>
      <path d="M1009.25 998.22a74.29 74.29 0 018.55-2.48v-2a76.28 76.28 0 00-9.25 2.66 78.18 78.18 0 00-40.94 34.26h2.32a76.15 76.15 0 0139.32-32.44z" class="lines"/>
      <path d="M761.79 993.23a27.76 27.76 0 00-1.1-9.82c-2.2-6.24-8-6-12.61-5.72h-.26a.64.64 0 00-.2 0 1.08 1.08 0 00-.66 0c-7.76 3.42-11.53 8.46-11.52 15.42a12.6 12.6 0 0012.93 12.5c6.9.09 13.17-5.74 13.42-12.38zm-24.35 0c0-6.13 3.23-10.43 10.2-13.53a.86.86 0 00.28 0h.26c4.59-.22 8.92-.44 10.62 4.39a25.75 25.75 0 011 9.09c-.21 5.51-5.65 10.54-11.42 10.54a10.62 10.62 0 01-10.94-10.52z" class="lines"/>
      <path d="M982.29 989.19c10.48-4.47 21.83-7.4 35.51-9.1v-2c-14 1.72-25.57 4.7-36.29 9.27s-19.48 12.44-25.76 18.73a238 238 0 01-28.44 24.53h3.38a243 243 0 0026.47-23.12c6.16-6.16 14.58-13.8 25.13-18.31z" class="lines"/>
      <path d="M542.51 934a21.44 21.44 0 003 .22c8.74 0 14.55-5.68 15.75-11.68.69-3.43-.58-7.43-3.38-10.7a16.08 16.08 0 00-13-5.74c-9.29.4-10.85 5.27-12.1 9.19-.15.47-.3.93-.46 1.39a14.19 14.19 0 001.13 11.66 12 12 0 009.06 5.66zm-8.25-16.66q.25-.71.48-1.44c1.23-3.84 2.39-7.46 10.29-7.8h.6a14.15 14.15 0 0110.77 5.06c2.41 2.81 3.51 6.18 2.94 9-1.15 5.77-7.34 11.18-16.54 9.87a10.14 10.14 0 01-7.58-4.72 12.16 12.16 0 01-.96-9.95z" class="lines"/>
      <path d="M618.11 1030.61h2.75a10.15 10.15 0 012.55-1.8 8.83 8.83 0 013.91-.89 14 14 0 016.22 1.67c.64.32 1.26.67 1.87 1h3.69a36.81 36.81 0 00-4.67-2.81c-4.42-2.21-8.43-2.48-11.9-.79a13.26 13.26 0 00-4.42 3.62z" class="lines"/>
      <path d="M44.37 657.82c5.52 0 10.8-.17 15.32-.4 25.76-1.26 54.93-5.61 63.7-9.49 6.84-3 11-7.7 12.28-13.88 2.11-10-3.67-23.72-15.44-36.64-15.81-17.33-73.22 8.17-75.73 9.31-1.21.68-29.55 16.65-33.26 19.58q-8.35 6.6-11.24 12v9.86c5.64 7.84 26.32 9.66 44.37 9.66zm-31.89-30c3.59-2.83 32.7-19.24 32.92-19.37.44-.2 34-15.13 56.62-15.13 7.13 0 13.17 1.49 16.73 5.39 11.34 12.45 16.94 25.48 15 34.88-1.16 5.52-4.91 9.71-11.13 12.46-17.48 7.74-111.2 17.14-121.26.45-2.71-4.39 1.04-10.67 11.12-18.63z" class="lines"/>
      <path d="M351.24 655.45c2.57 0 5.32-.08 8.22-.17 3.22-.09 6.55-.19 10-.19 18.91 0 19.58-9.54 20.6-24 .23-3.13.48-6.68.94-10.4.56-4.49-.57-8-3.36-10.38-8.57-7.37-29.93-1.46-30.84-1.2h-.14a68.62 68.62 0 00-13.08 8.13c-8.71 6.89-13.42 14.59-13.62 22.25-.14 5.15 1 8.89 3.58 11.43 3.74 3.77 9.89 4.53 17.7 4.53zm6.21-44.45c1.36-.37 21.38-5.66 28.92.82 2.28 2 3.15 4.78 2.67 8.62s-.72 7.35-.94 10.5c-1 14.26-1.56 22.12-18.61 22.12-3.51 0-6.86.1-10.09.2-11.23.33-20.1.6-24.42-3.71-2.14-2.13-3.12-5.39-3-10 .46-16.65 24.02-27.85 25.47-28.55z" class="lines"/>
      <path d="M814.17 654c22.76 0 49.17-12.31 70.76-22.38l.15-.07c7.15-3.33 11.27-7.65 12.61-13.19 3.15-13-10.35-30.42-24.65-48.82-7.74-10-15.74-20.25-21.52-30.34-6-10.46-13.3-16.22-21.74-17.13-16.19-1.76-32.77 14-46.85 29.59-33.49 37.1-29.73 46.08-6.45 82.38 9.41 14.64 22.76 19.96 37.69 19.96zm-29.76-101c8.32-9.22 27.8-30.82 45.16-28.94 7.76.83 14.56 6.26 20.22 16.13 5.85 10.22 13.89 20.57 21.67 30.58 14 18 27.21 35 24.29 47.12-1.19 4.91-5 8.79-11.52 11.85l-.15.07C849 646.13 801 668.52 778.16 632.93c-23.04-35.93-26.35-43.84 6.25-79.93z" class="lines"/>
      <path d="M755.39 451.75c20.31 8.65 44.59 14 64.93 14.28h1.28c14.1 0 23.38-3.38 28.35-10.32 8.49-11.85 2.51-31.68-4.35-51-9.46-26.58-45.93-30.34-61.18-30.72h-.72c-19.42-.7-37.76 6.66-50.37 20.19-8.54 9.17-13.27 20.28-12.34 29 1.01 9.27 13.53 19.68 34.4 28.57zm-20.6-56.18C746.47 383 763.26 376 781.17 376h3.21c14.83.37 50.29 4 59.33 29.39 6.68 18.8 12.54 38.07 4.62 49.13-4.71 6.58-13.87 9.67-28 9.48-20.1-.28-44.09-5.56-64.18-14.12-19.86-8.44-32.27-18.51-33.15-26.88-.89-8.17 3.63-18.68 11.79-27.43z" class="lines"/>
      <path d="M810.85 602.46c4.86 3.92 13 5.53 21.64 5.53 13.06 0 27.15-3.71 32.2-8.69 10.07-9.92.46-19.83-8.84-29.41-1.94-2-3.94-4.07-5.78-6.13a16.33 16.33 0 00-13.93-5.85c-8.45.67-17.78 7.5-24.33 17.8-9.56 15.02-5.81 22.84-.96 26.75zm2.65-25.68c6.22-9.78 15-16.25 22.8-16.88a14.22 14.22 0 0112.27 5.19c1.87 2.1 3.89 4.18 5.85 6.19 9.4 9.7 17.52 18.07 8.87 26.6-7 6.88-39.15 12.75-51.19 3-6.1-4.88-5.64-13.04 1.4-24.1z" class="lines"/>
    </g>
  </g>
</svg>